<?xml version="1.0" encoding="utf-8"?>
<!-- Generator: Adobe Illustrator 27.5.0, SVG Export Plug-In . SVG Version: 6.00 Build 0)  -->
<svg version="1.1" id="Layer_1" xmlns="http://www.w3.org/2000/svg" xmlns:xlink="http://www.w3.org/1999/xlink" x="0px" y="0px"
	 viewBox="0 0 453.999 282" style="enable-background:new 0 0 453.999 282;" xml:space="preserve">
<g>
	<g>
		<path style="fill:#4B5157;" d="M448.131,186.112c-0.57,18.617-16.122,33.247-34.74,32.678
			c-18.615-0.57-33.245-16.125-32.675-34.74c0.57-18.616,16.122-33.245,34.738-32.676
			C434.072,151.944,448.701,167.497,448.131,186.112z"/>
		<path style="opacity:0.6;fill:#4B5157;" d="M417.713,183.255c10.007,1.158,20.229,0.159,30.354-0.463
			c-0.399-5.957-2.381-11.492-5.494-16.223C433.994,171.722,426.059,177.66,417.713,183.255z"/>
		<path style="opacity:0.6;fill:#4B5157;" d="M416.188,180.052c8.025-5.563,15.537-11.857,24.094-16.586
			c-2.82-3.371-6.302-6.164-10.23-8.23C425.588,163.56,420,171.401,416.188,180.052z"/>
		<path style="opacity:0.6;fill:#4B5157;" d="M415.473,187.898c-1.785,0.018-3.559-0.139-5.361-0.37
			c-5.43,7.267-11.984,13.575-17.053,21.179c-0.348,0.523-0.695,1.042-1.042,1.566c5.702,5.078,13.145,8.266,21.374,8.518
			c3.352,0.102,6.599-0.305,9.682-1.121C420.353,207.791,417.615,197.919,415.473,187.898z"/>
		<path style="opacity:0.6;fill:#C6CCCE;" d="M426.991,155.585c-0.865-0.321-5.536,0.242-4.16,0.756
			c3.468,1.293,6.934,3.577,10.008,6.48c-3.874-3.301-8.723-5.583-14.409-6.351c-0.647-0.087-1.245,0.27-0.442,0.702
			c1.771,0.954,3.474,1.972,5.102,3.043c-1.108-0.183-2.259-0.269-3.491-0.138c-0.422,0.044-0.816,0.405-0.268,0.656
			c3.197,1.47,6.318,3.513,8.561,6.265c-0.272-0.111-0.553-0.217-0.836-0.32c-1.666-0.77-3.535-1.301-5.661-1.503
			c-0.364-0.034-1.311,0.109-0.636,0.583c2.82,1.979,5.594,4.33,7.865,6.991c-0.263-0.186-0.549-0.339-0.825-0.507
			c-2.169-1.961-4.84-3.423-8.097-4.111c-0.609-0.128-1.706,0.053-0.723,0.646c1.953,1.174,3.924,2.977,5.52,5.09
			c-2.24-1.469-5.185-2.768-6.62-1.436c-0.425,0.012-0.68,0.142-0.354,0.44c-0.057,0.098-0.127,0.178-0.178,0.291
			c-0.182,0.414,0.628,0.67,1.289,0.66c4.674,3.979,7.299,8.393,7.099,14.872c-0.007,0.239,0.247,0.45,0.577,0.595
			c-0.153,0.129-0.283,0.285-0.453,0.393c-0.701,0.454,1.295,1.011,1.773,0.702c1.926-1.24,2.918-3.65,3.217-6.127
			c0.697,2.482,0.51,5.122,0.415,7.735c-0.023,0.62,1.643,0.651,1.978,0.397c0.325-0.252,0.582-0.546,0.852-0.832
			c0.432,0.074,0.838,0.029,0.933-0.232c0.253-0.703,0.432-1.393,0.585-2.077c0.775-1.789,1.002-3.843,0.885-5.872
			c0.486,2.113,0.848,4.258,1.148,6.389c-0.045,0.356-0.085,0.713-0.153,1.072c-0.069,0.361,0.587,0.531,1.192,0.531
			c0.535,0.144,1.125,0.149,1.191-0.164c0.045-0.219,0.061-0.426,0.1-0.641c0.709-1.074,1.174-2.23,1.426-3.443
			c-0.059,2.227-0.299,4.445-0.744,6.605c-0.133,0.645,1.77,1.035,2.088,0.527C451.627,180.011,440.541,160.635,426.991,155.585z"/>
		<path style="opacity:0.4;fill:#4B5157;" d="M400.481,157.3c0.964-0.428,2.333-0.068,2.538,1.123
			c1.053,6.137,2.049,12.891,0.074,18.896c-1.619,4.917-6.344,8.492,0.068,14.524c2.034,2.159,4.453,3.723,7.255,4.689
			c7.355,1.877,15.067-1.729,17.284-9.357c2.045-7.038-2.055-9.254-5.723-13.814c-0.983-1.223-1.092-3.266-1.134-4.744
			c-0.163-5.602-0.577-11.184-0.909-16.772c-1.467-0.242-2.954-0.423-4.481-0.47c-15.788-0.482-29.335,9.983-33.446,24.524
			C386.014,167.899,392.23,160.954,400.481,157.3z"/>
		<path style="opacity:0.4;fill:#4B5157;" d="M436.716,159.849c2.989,4.145,4.884,9.395,5.936,14.096
			c2.627,11.724,0.773,22.283-8.74,30.367c-10.277,8.736-26.286,9.265-38.316,4.41c-5.156-2.082-9.022-5.586-11.893-9.852
			c5.119,11.4,16.357,19.512,29.688,19.92c18.618,0.569,34.17-14.061,34.74-32.678C448.449,175.683,443.973,166.248,436.716,159.849
			z"/>
		<path style="fill:#899497;" d="M423.77,184.648c-0.17,5.545-4.803,9.902-10.348,9.732c-5.546-0.17-9.902-4.802-9.733-10.347
			c0.17-5.544,4.802-9.901,10.349-9.731C419.582,174.472,423.939,179.103,423.77,184.648z"/>
		<path style="opacity:0.3;fill:#C6CCCE;" d="M401.645,212.834c0.59,0.098,1.555-1.589,0.983-1.913
			c-1.915-1.096-3.742-2.38-5.452-3.806c1.074,0.608,2.252,1.023,3.525,1.201c0.191,0.113,0.354,0.238,0.547,0.35
			c0.279,0.155,0.667-0.287,0.912-0.788c0.398-0.451,0.707-1.059,0.389-1.244c-0.314-0.184-0.61-0.391-0.906-0.594
			c-1.402-1.635-2.771-3.321-4.037-5.082c1.445,1.428,3.136,2.615,4.992,3.215c0.613,0.338,1.252,0.658,1.945,0.932
			c0.258,0.103,0.561-0.174,0.789-0.545c0.394-0.014,0.784-0.012,1.189-0.09c0.412-0.08,1.49-1.355,1.008-1.748
			c-2.023-1.652-4.13-3.256-5.531-5.419c2.055,1.409,4.52,2.256,6.722,1.632c0.548-0.156,1.45-2.025,0.647-1.797
			c-0.195,0.057-0.4,0.051-0.6,0.08c0.111-0.344,0.121-0.672-0.063-0.824c-4.997-4.133-6.576-9.018-6.475-15.156
			c0.443-0.486,0.787-1.268,0.356-1.402c-0.115-0.037-0.225-0.04-0.336-0.059c-0.01-0.441-0.273-0.336-0.565-0.025
			c-1.947,0.197-2.919,3.266-3.294,5.92c-0.532-2.594-0.583-5.265-0.177-7.509c0.205-1.128-0.657-0.424-0.96,0.118
			c-1.638,2.898-2.304,5.868-2.263,8.793c-0.057,0.318-0.133,0.633-0.168,0.954c-0.496-3.465-0.431-7.099-0.051-10.526
			c0.09-0.816-0.641-0.199-0.856,0.097c-1.254,1.729-2.09,3.481-2.61,5.24c-0.113,0.282-0.219,0.561-0.313,0.841
			c-0.586-3.502-0.059-7.195,0.951-10.566c0.173-0.576-0.359-0.518-0.671-0.23c-0.913,0.838-1.605,1.757-2.203,2.71
			c0.272-1.929,0.631-3.878,1.085-5.841c0.207-0.887-0.456-0.674-0.817-0.13c-3.181,4.776-4.67,9.923-4.751,15.014
			c-0.148-4.226,0.424-8.336,1.745-11.796c0.524-1.371-2.985,1.764-3.314,2.625C377.858,188.972,385.08,210.095,401.645,212.834z"/>
		<path style="fill:#4B5157;" d="M404.887,187.153c-7.83,1.636-15.613,3.41-23.501,4.66c0.806,3.951,2.297,7.66,4.357,10.99
			c8.947-5.849,17.813-11.809,27.269-16.775C410.246,186.297,407.507,186.607,404.887,187.153z"/>
		<path style="fill:#4B5157;" d="M435.432,170.893c2.412-1.368,4.748-2.87,7.078-4.376c-0.695-1.048-1.428-2.071-2.232-3.033
			c-3.806,3.107-7.633,6.185-11.435,9.296c-3.064,2.507-5.964,5.248-8.936,7.885C425.237,178.116,430.444,173.723,435.432,170.893z"
			/>
	</g>
	<g>
		<path style="fill:#1FA4F3;" d="M410.948,189.376c-0.929-0.332-1.798-0.395-2.74-0.229c-0.945,0.193-1.972,0.646-3.048,1.279
			c-1.084,0.635-2.192,1.412-3.453,2.207c-1.259,0.781-2.669,1.625-4.506,2.096c-1.808,0.498-4.115,0.295-5.789-0.59
			c-1.712-0.841-2.964-2.008-4.036-3.178c-0.545-0.59-1.013-1.199-1.48-1.809l-0.609-0.797l-0.07,0.524l-0.102,0.963
			c-0.119,1.305-0.186,2.668-0.242,4.041l-0.305,8.368c-0.273,5.633-0.694,11.356-2.161,17.093c-0.377,1.432-0.83,2.862-1.397,4.277
			c-0.287,0.718-0.588,1.391-0.962,2.127c-0.311,0.652-1.248,2.104-2.283,2.813c-1.051,0.743-2.443,1.033-3.66,0.568
			c-1.219-0.371-2.283-1.465-3.011-2.427c-1.007-1.436-1.645-2.795-2.25-4.159c-1.169-2.719-2.071-5.417-2.922-8.122
			c-0.846-2.704-1.618-5.408-2.361-8.113c-2.956-10.819-5.55-21.649-8.433-32.38c-1.438-5.363-2.933-10.702-4.577-15.973
			c-1.649-5.264-3.436-10.48-5.608-15.438c-0.278-0.625-0.546-1.238-0.82-1.77c-0.135-0.274-0.285-0.539-0.418-0.775l-0.022-0.035
			l-0.115,0.308c-0.195,0.536-0.378,1.151-0.542,1.767c-0.328,1.244-0.595,2.556-0.831,3.882
			c-0.929,5.328-1.461,10.858-1.946,16.368c-1.837,22.119-2.525,44.43-4.515,66.746c-0.518,5.585-1.105,11.171-2.035,16.787
			c-0.485,2.814-1.018,5.621-1.92,8.503c-0.486,1.45-0.96,2.896-2.069,4.511c-0.307,0.41-0.621,0.815-1.14,1.25
			c-0.528,0.438-1.146,0.786-1.844,0.971c-0.159,0.047-0.313,0.094-0.479,0.129c-0.182,0.025-0.367,0.045-0.552,0.06
			c-0.365,0.043-0.743,0.023-1.132-0.052c-0.395-0.05-0.745-0.17-1.082-0.321c-0.362-0.14-0.64-0.318-0.905-0.508
			c-1.052-0.766-1.644-1.626-2.086-2.392c-0.452-0.782-0.776-1.536-1.057-2.277c-0.552-1.481-0.932-2.921-1.261-4.351
			c-0.637-2.855-1.061-5.674-1.422-8.484c-0.71-5.618-1.161-11.201-1.594-16.774c-0.869-11.129-1.5-22.258-2.97-33.148
			c-0.379-2.715-0.814-5.414-1.395-8.035c-0.574-2.606-1.297-5.209-2.347-7.331c-0.511-1.019-1.187-1.962-1.675-2.218
			c-0.075-0.074-0.315-0.168-0.506-0.264c-0.188-0.057-0.375-0.134-0.54-0.154c-0.337-0.063-0.614-0.055-0.915,0.023
			c-0.594,0.131-1.379,0.727-2.102,1.564c-0.725,0.848-1.393,1.9-2.002,3.018c-1.211,2.26-2.21,4.77-3.128,7.324
			c-0.915,2.56-1.743,5.187-2.552,7.834c-1.631,5.299-3.11,10.688-5.091,16.085c-0.503,1.351-1.046,2.702-1.678,4.056
			c-0.633,1.354-1.352,2.713-2.352,4.07c-0.52,0.677-1.114,1.361-1.93,1.994c-0.197,0.159-0.414,0.313-0.661,0.455
			c-0.227,0.146-0.484,0.28-0.764,0.397c-0.286,0.137-0.523,0.204-0.761,0.27l-0.726,0.2c-0.499,0.116-1.111,0.151-1.683,0.157
			c-0.634-0.08-1.268-0.133-1.875-0.43c-0.641-0.235-1.126-0.615-1.61-1.01c-0.239-0.197-0.391-0.406-0.584-0.616
			c-0.178-0.21-0.377-0.429-0.492-0.634c-1.1-1.697-1.494-3.248-1.871-4.733c-0.353-1.488-0.581-2.921-0.788-4.33
			c-0.414-2.818-0.72-5.557-1.195-8.196c-0.469-2.622-1.086-5.195-2.136-7.277c-0.517-1.039-1.143-1.935-1.875-2.541
			c-0.734-0.629-1.532-0.973-2.532-1.188c-2.1-0.383-3.557,0.174-4.932,1.87c-1.34,1.7-2.287,4.149-3.001,6.657
			c-1.426,5.088-2.113,10.591-3.005,16.13c-0.455,2.782-0.914,5.587-1.702,8.472c-0.406,1.444-0.872,2.91-1.685,4.436
			c-0.413,0.759-0.915,1.544-1.664,2.293c-0.746,0.746-1.785,1.439-3.075,1.716c-0.437,0.052-0.885,0.122-1.324,0.085
			c-0.432-0.048-0.893-0.095-1.231-0.227c-0.756-0.225-1.344-0.555-1.863-0.892c-1.045-0.686-1.776-1.438-2.471-2.192
			c-1.354-1.517-2.415-3.08-3.406-4.66c-1.959-3.165-3.587-6.405-5.127-9.672c-3.049-6.54-5.679-13.195-8.166-19.893
			c-4.944-13.403-9.263-26.985-13.253-40.661c-3.963-13.685-7.609-27.456-10.655-41.413c-3.101-13.959-5.041-28.319-5.165-42.726
			c-0.042-7.208,0.337-14.444,1.432-21.636c1.128-7.172,2.872-14.365,6.163-21.105c1.645-3.356,3.692-6.595,6.321-9.434
			c2.612-2.833,5.861-5.25,9.557-6.695c3.673-1.454,7.655-2.084,11.639-1.702c1,0.039,1.968,0.302,2.949,0.475
			c0.971,0.214,1.911,0.547,2.856,0.842c1.835,0.729,3.624,1.576,5.237,2.657c3.266,2.113,6.038,4.785,8.421,7.681
			c2.387,2.902,4.382,6.049,6.118,9.302c3.449,6.524,5.89,13.478,7.407,20.663c0.738,3.6,1.269,7.257,1.349,11.021l0.009,1.416
			l0,0.307l-0.007,0.147l-0.014,0.296l-0.016,0.338l0.452-0.475c0.576-0.615,1.145-1.254,1.708-1.905
			c1.126-1.304,2.229-2.654,3.315-4.024c1.085-1.37,2.154-2.762,3.209-4.165l1.571-2.115l1.67-2.306l2.371-2.326
			c0.733-0.749,1.546-1.426,2.321-2.138l1.178-1.053l1.228-1.005c0.817-0.672,1.632-1.346,2.504-1.96
			c3.408-2.535,7.117-4.787,11.228-6.37c1.004-0.438,2.098-0.703,3.151-1.042c0.536-0.15,1.093-0.249,1.64-0.373
			c0.547-0.122,1.095-0.242,1.664-0.294c2.231-0.371,4.573-0.31,6.864,0.029c4.631,0.679,8.925,3.215,11.999,6.563
			c1.531,1.688,2.841,3.536,3.908,5.488c1.029,1.964,1.934,3.985,2.574,6.07c1.363,4.152,1.964,8.449,2.165,12.717
			c0.229,8.521-1.111,17.046-4.028,25.013c-2.885,7.976-7.193,15.317-12.209,21.988c-5.025,6.683-10.741,12.744-16.747,18.44
			l-4.58,4.186c-1.548,1.367-3.149,2.67-4.722,4.008l-2.369,1.993l-2.43,1.91l-4.871,3.806l-4.978,3.651
			c-1.667,1.204-3.307,2.452-5.016,3.593l-10.105,6.934c-6.624,4.575-12.914,9.607-18.536,15.237
			c-5.617,5.625-10.469,11.955-13.845,19.029c-1.717,3.523-3.041,7.228-4.191,11.064c-1.172,3.837-2.115,7.847-3.751,11.912
			c-0.828,2.021-1.871,4.042-3.212,5.893c-0.313,0.477-0.694,0.906-1.053,1.352c-0.346,0.443-0.757,0.881-1.176,1.314l-0.707,0.652
			c-0.082,0.092-0.351,0.26-0.528,0.391l-0.592,0.417c-0.868,0.46-1.807,0.869-2.773,0.795c-0.972,0.004-1.876-0.444-2.611-1.058
			c-0.177-0.166-0.359-0.33-0.519-0.517l-0.437-0.608c-0.31-0.402-0.48-0.816-0.691-1.244c-0.536-1.265-0.781-2.335-1.021-3.428
			c-0.454-2.161-0.709-4.229-0.957-6.291l-1.308-12.177c-0.238-1.981-0.482-4.066-0.792-5.935c-0.165-0.94-0.354-1.867-0.597-2.716
			c-0.123-0.423-0.252-0.833-0.4-1.186c-0.075-0.216-0.128-0.304-0.186-0.423l-0.072-0.145c-0.008,0.014,0.045-0.054-0.149,0.142
			c-0.25,0.243-0.518,0.55-0.781,0.884c-1.063,1.363-2.04,3.084-2.946,4.814c-0.911,1.743-1.766,3.553-2.596,5.387
			c-0.848,1.84-1.585,3.67-2.542,5.609c-1.756,3.862-3.962,7.514-6.478,10.957c-0.605,0.875-1.305,1.693-1.971,2.533
			c-0.326,0.422-0.706,0.817-1.059,1.227l-0.549,0.616l-0.722,0.741c-0.129,0.127-0.222,0.238-0.38,0.377l-0.588,0.462
			c-0.434,0.228-0.845,0.542-1.303,0.679c-0.89,0.377-1.837,0.468-2.739,0.243c-0.901-0.239-1.678-0.787-2.258-1.528
			c-0.302-0.363-0.507-0.824-0.722-1.264c-0.175-0.476-0.368-0.959-0.452-1.344c-0.122-0.459-0.162-0.729-0.219-1.028
			c-0.059-0.304-0.087-0.584-0.131-0.877c-0.07-0.573-0.119-1.132-0.155-1.683c-0.068-1.099-0.086-2.168-0.085-3.229
			c0.007-2.117,0.098-4.191,0.212-6.254c0.232-4.125,0.56-8.199,0.86-12.267c0.605-8.126,1.154-16.222,1.11-24.257
			c-0.027-4.013-0.204-8.01-0.683-11.922c-0.239-1.956-0.565-3.885-1.003-5.762c-0.437-1.867-0.987-3.738-1.732-5.202
			c-0.349-0.707-0.835-1.33-1.039-1.439c-0.08-0.07-0.024-0.018-0.041-0.029c0.015-0.012-0.002-0.002-0.21,0.09
			c-0.389,0.198-0.992,0.742-1.523,1.393c-0.542,0.65-1.065,1.408-1.559,2.203c-1.972,3.224-3.566,6.922-5.024,10.633
			c-2.884,7.474-5.228,15.245-7.249,23.061c-1.016,3.92-1.865,7.818-2.686,11.828l-2.51,12.001
			c-1.709,8.005-3.502,16.003-5.525,23.965c-2.043,7.958-4.234,15.895-7.132,23.713c-1.487,3.903-3.063,7.79-5.441,11.556
			c-0.616,0.939-1.259,1.873-2.085,2.777c-0.824,0.895-1.777,1.802-3.158,2.49c-0.321,0.182-0.744,0.303-1.118,0.438
			c-0.409,0.103-0.838,0.194-1.275,0.226c-0.446,0.011-0.897,0.032-1.332-0.06c-0.219-0.037-0.439-0.076-0.652-0.125l-0.601-0.207
			c-1.587-0.617-2.614-1.625-3.437-2.572c-1.661-1.951-2.595-4.109-3.337-6.21c-0.714-2.114-1.191-4.228-1.559-6.331
			c-0.721-4.206-1.022-8.378-1.182-12.527c-0.292-8.299,0.005-16.516,0.367-24.697c0.365-8.178,0.874-16.328,1.09-24.418
			c0.094-4.036,0.133-8.079-0.159-11.98c-0.155-1.932-0.392-3.872-0.87-5.492c-0.228-0.775-0.582-1.515-0.803-1.72
			c-0.088-0.108-0.043-0.024-0.051-0.06c-0.004-0.002,0.015,0.002-0.03,0.008c-0.079-0.014-0.164,0.023-0.252,0.027
			c-0.358,0.085-0.901,0.389-1.452,0.902c-0.552,0.518-1.101,1.191-1.614,1.926c-1.024,1.491-1.935,3.202-2.766,4.971
			c-1.663,3.551-3.065,7.334-4.415,11.143c-2.711,7.637-5.059,15.461-8.181,23.217c-0.795,1.94-1.646,3.877-2.679,5.803
			c-0.52,0.963-1.082,1.925-1.756,2.88c-0.682,0.951-1.456,1.915-2.593,2.804c-0.57,0.436-1.249,0.863-2.112,1.132
			c-0.437,0.162-0.812,0.182-1.221,0.249c-0.202,0.027-0.4,0.055-0.604,0.07l-0.646-0.035c-0.433-0.028-0.859-0.073-1.271-0.223
			c-0.41-0.132-0.843-0.252-1.183-0.471c-0.76-0.385-1.328-0.883-1.869-1.392c-1.926-2.104-2.72-4.298-3.411-6.405
			c-1.301-4.242-1.832-8.415-2.228-12.583c-0.365-4.179-0.524-8.286-0.487-12.509l5.113,0.096c-0.035,3.94,0.119,8.003,0.468,11.957
			c0.366,3.95,0.906,7.925,2.01,11.496c0.268,0.896,0.608,1.723,0.964,2.506c0.38,0.74,0.802,1.42,1.226,1.864
			c0.442,0.421,0.733,0.542,1.034,0.561c0.039,0.004,0.078,0.012,0.118,0.025l0.154-0.035c0.091-0.025,0.239-0.006,0.277-0.045
			c0.117-0.025,0.325-0.139,0.561-0.322c0.477-0.367,1.028-0.988,1.526-1.697c0.503-0.713,0.978-1.515,1.426-2.348
			c0.898-1.671,1.697-3.477,2.449-5.314c2.983-7.397,5.345-15.233,8.092-22.984c1.378-3.884,2.811-7.771,4.611-11.618
			c0.907-1.923,1.907-3.837,3.195-5.714c0.657-0.936,1.39-1.866,2.326-2.747c0.943-0.863,2.147-1.741,3.783-2.143
			c0.415-0.079,0.83-0.16,1.264-0.156c0.465-0.031,0.992,0.057,1.487,0.152c0.966,0.263,1.912,0.881,2.499,1.549
			c1.162,1.315,1.55,2.547,1.934,3.702c0.669,2.305,0.893,4.445,1.073,6.577c0.315,4.244,0.266,8.379,0.172,12.503
			c-0.22,8.235-0.73,16.387-1.093,24.523c-0.361,8.128-0.648,16.248-0.365,24.275c0.153,4.006,0.45,7.996,1.11,11.84
			c0.334,1.918,0.766,3.797,1.359,5.551c0.602,1.735,1.374,3.379,2.381,4.537c0.493,0.594,1.029,1.007,1.362,1.118
			c0.33,0.099,0.461,0.138,0.944-0.09c0.455-0.22,1.043-0.707,1.589-1.315c0.557-0.602,1.08-1.352,1.582-2.119
			c1.996-3.143,3.545-6.859,4.95-10.577c2.781-7.499,4.952-15.328,6.965-23.182c1.999-7.866,3.78-15.806,5.48-23.771l2.505-11.977
			c0.816-3.988,1.705-8.07,2.739-12.056c2.067-7.99,4.442-15.883,7.437-23.647c1.531-3.879,3.159-7.725,5.445-11.477
			c0.585-0.938,1.218-1.868,1.982-2.786c0.775-0.908,1.634-1.847,3.047-2.628c0.692-0.371,1.67-0.711,2.71-0.693
			c1.002-0.01,2.072,0.392,2.815,0.923c0.747,0.521,1.275,1.101,1.683,1.659c0.43,0.565,0.741,1.117,1.024,1.665
			c1.096,2.188,1.661,4.28,2.165,6.378c0.49,2.1,0.843,4.202,1.1,6.299c0.513,4.194,0.693,8.368,0.722,12.518
			c0.044,8.301-0.519,16.516-1.124,24.67c-0.301,4.076-0.627,8.141-0.854,12.169c-0.111,2.013-0.197,4.019-0.204,5.984
			c-0.001,0.982,0.017,1.954,0.075,2.892c0.03,0.469,0.071,0.926,0.125,1.367c0.033,0.211,0.054,0.439,0.095,0.637
			c0.038,0.202,0.078,0.436,0.092,0.469l0.023,0.096l0.157-0.163l0.343-0.357l0.467-0.528c0.313-0.364,0.645-0.703,0.941-1.09
			c0.601-0.762,1.233-1.493,1.788-2.3c2.297-3.145,4.342-6.518,5.962-10.093c0.856-1.719,1.652-3.676,2.512-5.545
			c0.854-1.885,1.742-3.77,2.721-5.645c0.994-1.877,2.016-3.74,3.458-5.605c0.368-0.467,0.768-0.936,1.25-1.404
			c0.094-0.102,0.268-0.258,0.459-0.413c0.183-0.15,0.37-0.296,0.561-0.434c0.201-0.133,0.431-0.248,0.645-0.372
			c0.217-0.126,0.433-0.255,0.67-0.313c0.905-0.374,1.928-0.415,2.842-0.116c0.235,0.064,0.456,0.16,0.661,0.291
			c0.207,0.127,0.431,0.223,0.623,0.372c0.373,0.317,0.761,0.626,1.034,1.06l0.448,0.608c0.15,0.203,0.198,0.345,0.298,0.521
			c0.174,0.335,0.359,0.699,0.45,0.968c0.245,0.59,0.421,1.154,0.583,1.713c0.318,1.113,0.533,2.191,0.722,3.261
			c0.356,2.16,0.58,4.133,0.831,6.204l1.307,12.178c0.237,1.99,0.492,3.979,0.879,5.814c0.187,0.9,0.435,1.823,0.7,2.439l0.04,0.085
			l0.004-0.003l0.029-0.022c0.025-0.021-0.018,0.022,0.079-0.069l0.418-0.386c0.288-0.305,0.58-0.605,0.86-0.971
			c0.28-0.351,0.585-0.68,0.828-1.061c1.056-1.456,1.908-3.085,2.627-4.839c1.426-3.516,2.384-7.477,3.586-11.446
			c1.193-3.981,2.621-7.993,4.483-11.814c3.668-7.686,8.916-14.498,14.821-20.41c5.919-5.928,12.443-11.133,19.249-15.836
			l10.091-6.925c1.689-1.126,3.299-2.352,4.941-3.538l4.898-3.593l4.78-3.735l2.385-1.873l2.316-1.95
			c1.536-1.308,3.105-2.582,4.616-3.917l4.46-4.076c5.837-5.537,11.355-11.397,16.151-17.773c4.79-6.367,8.83-13.282,11.503-20.682
			c2.704-7.376,3.923-15.253,3.723-23.05c-0.183-3.875-0.73-7.743-1.922-11.355c-0.555-1.823-1.337-3.538-2.195-5.189
			c-0.892-1.633-1.965-3.128-3.172-4.466c-2.447-2.633-5.586-4.473-9.067-4.989c-3.468-0.556-7.182,0.037-10.681,1.412
			c-3.516,1.353-6.863,3.359-9.995,5.694c-0.799,0.56-1.557,1.188-2.316,1.813l-1.143,0.933l-1.104,0.989
			c-0.728,0.67-1.488,1.298-2.183,2.01l-2,1.963l-1.456,2.004l-1.604,2.158c-1.078,1.434-2.171,2.857-3.289,4.27
			c-1.119,1.411-2.261,2.812-3.455,4.193c-0.598,0.69-1.209,1.377-1.846,2.058l-0.517,0.542c-0.293,0.294-0.556,0.573-0.888,0.885
			c-0.63,0.621-1.289,1.181-1.94,1.667c-1.332,0.977-2.517,1.31-3.544,1.129c-0.507-0.066-1.228-0.421-1.59-0.786
			c-0.377-0.358-0.632-0.733-0.828-1.249l-0.074-0.188c-0.02-0.07-0.01-0.188-0.016-0.28l-0.014-0.588l-0.029-1.177
			c-0.003-0.383-0.034-0.803-0.014-1.157l0.075-1.044l0.075-1.044l0.038-0.522c0.018-0.202,0.003-0.234,0.007-0.36l-0.008-1.245
			c-0.069-3.337-0.555-6.737-1.243-10.086c-1.411-6.7-3.723-13.273-6.914-19.302c-3.188-5.988-7.378-11.566-12.794-15.087
			c-1.336-0.902-2.778-1.567-4.234-2.157c-0.748-0.223-1.487-0.495-2.247-0.66c-0.767-0.123-1.52-0.352-2.301-0.368
			c-3.082-0.3-6.302,0.201-9.221,1.357c-2.932,1.142-5.532,3.062-7.724,5.434c-2.199,2.373-3.998,5.188-5.472,8.199
			c-2.959,6.042-4.633,12.808-5.701,19.632c-1.044,6.849-1.415,13.834-1.374,20.818c0.126,14.002,1.996,27.936,5.049,41.686
			c3.008,13.785,6.632,27.48,10.568,41.066c3.961,13.58,8.253,27.076,13.138,40.314c2.455,6.609,5.049,13.169,8.001,19.498
			c1.484,3.152,3.056,6.264,4.836,9.136c0.889,1.427,1.843,2.802,2.857,3.934c0.5,0.552,1.034,1.068,1.484,1.349
			c0.219,0.146,0.422,0.244,0.519,0.267c0.119,0.045,0.051-0.004,0.07,0.029c0.077-0.023,0.265-0.098,0.5-0.334
			c0.239-0.235,0.515-0.625,0.763-1.09c0.505-0.935,0.917-2.136,1.257-3.372c0.685-2.493,1.14-5.198,1.581-7.915
			c0.887-5.457,1.559-11.061,3.136-16.725c0.402-1.416,0.876-2.838,1.491-4.258c0.609-1.416,1.372-2.841,2.433-4.19
			c1.067-1.33,2.528-2.615,4.368-3.299c1.821-0.715,3.809-0.736,5.492-0.406c1.728,0.327,3.558,1.126,4.933,2.338
			c1.408,1.194,2.376,2.662,3.101,4.105c1.451,2.916,2.086,5.848,2.609,8.692c0.512,2.849,0.822,5.654,1.22,8.35
			c0.196,1.347,0.412,2.67,0.704,3.894c0.281,1.209,0.682,2.383,1.116,3.026c0.048,0.106,0.103,0.131,0.149,0.188
			c0.046,0.041,0.087,0.133,0.125,0.146c0.071,0.027,0.116,0.111,0.151,0.089c0.011,0.054,0.098-0.005,0.145,0.044
			c0.117-0.031,0.214-0.006,0.39-0.05l0.28-0.083c0.099-0.023,0.199-0.047,0.224-0.072c0.043-0.014,0.097-0.037,0.16-0.085
			c0.058-0.028,0.126-0.075,0.199-0.138c0.288-0.221,0.629-0.584,0.956-1.012c1.327-1.806,2.385-4.344,3.323-6.834
			c1.864-5.071,3.349-10.442,4.993-15.796c0.82-2.683,1.667-5.374,2.628-8.064c0.969-2.688,2.023-5.377,3.445-8.035
			c0.727-1.326,1.542-2.65,2.628-3.925c1.097-1.235,2.509-2.573,4.643-3.161c1.043-0.287,2.194-0.313,3.221-0.107
			c0.525,0.093,0.994,0.259,1.464,0.427c0.439,0.201,0.852,0.362,1.348,0.695c0.502,0.291,0.849,0.641,1.243,0.982
			c0.313,0.35,0.678,0.709,0.92,1.068c0.275,0.361,0.525,0.725,0.731,1.086c0.232,0.363,0.417,0.724,0.6,1.084
			c1.415,2.887,2.143,5.719,2.78,8.541c0.624,2.822,1.074,5.631,1.466,8.436c1.511,11.212,2.135,22.367,3.004,33.46
			c0.43,5.542,0.88,11.073,1.568,16.517c0.349,2.717,0.76,5.416,1.337,8.002c0.294,1.284,0.635,2.545,1.058,3.676
			c0.211,0.561,0.446,1.089,0.693,1.512c0.236,0.447,0.52,0.716,0.592,0.77c0.008,0.005,0.013,0.014,0.018,0.024
			c-0.048,0.097-0.072,0.108-0.103,0.178c-0.028,0.058-0.052,0.124-0.068,0.196c-0.009,0.045-0.002-0.002-0.006,0.011
			c-0.002-0.001-0.005,0.005-0.007,0.015c0.007-0.051,0.009-0.139,0.002-0.198c-0.017-0.11-0.069-0.284-0.029-0.255
			c-0.018,0.02-0.021,0.014-0.011,0.012c0.021-0.007,0.146-0.15,0.254-0.297c0.491-0.682,0.978-1.895,1.353-3.084
			c0.768-2.439,1.292-5.121,1.749-7.798c0.892-5.384,1.476-10.892,1.986-16.405c1.974-22.105,2.661-44.396,4.513-66.718
			c0.495-5.591,1.022-11.173,2.007-16.83c0.253-1.417,0.54-2.839,0.922-4.291c0.195-0.731,0.406-1.452,0.686-2.227
			c0.089-0.227,0.134-0.372,0.263-0.665c0.147-0.311,0.271-0.643,0.438-0.94c0.325-0.597,0.68-1.185,1.123-1.625
			c0.844-0.915,1.984-1.428,3.215-1.323c1.19,0.098,2.241,0.778,3.133,1.788l0.622,0.813l0.542,0.846
			c0.211,0.367,0.402,0.711,0.576,1.063c0.362,0.709,0.65,1.373,0.939,2.021c2.302,5.258,4.126,10.607,5.811,15.977
			c1.676,5.373,3.187,10.771,4.636,16.175c2.902,10.802,5.503,21.658,8.424,32.347c0.733,2.67,1.492,5.326,2.311,7.941
			c0.819,2.611,1.694,5.205,2.729,7.607c0.514,1.185,1.101,2.348,1.697,3.195l0.069,0.088l0.21-0.389
			c0.257-0.505,0.529-1.103,0.758-1.682c0.469-1.171,0.862-2.401,1.194-3.664c1.306-5.082,1.741-10.545,1.999-16.031l0.304-8.342
			c0.058-1.411,0.125-2.833,0.259-4.303l0.118-1.117l0.081-0.6l0.16-0.939c0.254-1.367,0.731-2.638,1.47-3.475
			c0.375-0.409,0.809-0.73,1.335-0.949c0.526-0.236,1.125-0.298,1.659-0.25c0.542,0.027,1.069,0.244,1.597,0.492
			c0.259,0.173,0.523,0.315,0.777,0.513c0.249,0.218,0.506,0.412,0.747,0.648l0.709,0.74l0.59,0.713l0.147,0.178l0.088,0.117
			l0.174,0.23l0.325,0.428c0.381,0.496,0.76,0.993,1.165,1.426c0.795,0.884,1.657,1.615,2.456,2c0.4,0.201,0.772,0.307,1.146,0.34
			c0.368,0.057,0.762-0.004,1.198-0.101c0.878-0.212,1.924-0.77,3.018-1.463c1.099-0.689,2.273-1.517,3.594-2.292
			c1.322-0.771,2.856-1.52,4.648-1.884c1.796-0.355,3.799-0.187,5.488,0.448L410.948,189.376z"/>
		<path style="opacity:0.4;fill:#0F448C;" d="M220.771,196.08c-1.194,2.814-2.187,5.712-3.064,8.64
			c-1.188,3.904-2.138,7.889-3.667,11.674c-0.772,1.885-1.717,3.705-2.913,5.354c-0.277,0.429-0.62,0.807-0.938,1.204
			c-0.313,0.403-0.663,0.77-1.015,1.138c-0.724,0.691-1.513,1.414-2.534,1.505c-0.505,0.027-0.98-0.233-1.31-0.602
			c-0.35-0.36-0.561-0.824-0.777-1.273c-0.399-0.933-0.645-1.928-0.858-2.923c-0.42-1.994-0.674-4.021-0.917-6.047l-1.308-12.178
			c-0.244-2.027-0.478-4.055-0.812-6.072c-0.177-1.006-0.379-2.01-0.661-2.994c-0.278-0.982-0.628-1.957-1.211-2.824
			c-0.287-0.43-0.675-0.816-1.166-0.995c-0.484-0.187-1.05-0.12-1.506,0.13c-0.948,0.465-1.632,1.282-2.271,2.066
			c-1.257,1.619-2.257,3.414-3.208,5.219c-1.915,3.611-3.439,7.41-5.187,11.096c-1.687,3.714-3.811,7.224-6.214,10.514
			c-1.197,1.648-2.507,3.226-3.91,4.69c-0.175,0.185-0.351,0.363-0.534,0.531c-0.213,0.13-0.41,0.287-0.638,0.39
			c-0.434,0.229-0.94,0.405-1.434,0.292c-0.497-0.108-0.866-0.509-1.102-0.938c-0.243-0.438-0.399-0.914-0.513-1.403
			c-0.454-1.979-0.474-4.042-0.486-6.074c0.007-2.04,0.096-4.079,0.208-6.116c0.229-4.076,0.556-8.146,0.857-12.217
			c0.605-8.141,1.161-16.297,1.117-24.468c-0.028-4.083-0.207-8.171-0.703-12.227c-0.248-2.027-0.588-4.045-1.052-6.035
			c-0.471-1.985-1.029-3.969-1.953-5.803c-0.475-0.898-1.034-1.805-1.892-2.402c-0.42-0.303-0.935-0.496-1.458-0.491
			c-0.524-0.004-1.033,0.165-1.488,0.403c-0.912,0.496-1.646,1.241-2.301,2.023c-0.656,0.787-1.235,1.634-1.776,2.501
			c-2.133,3.494-3.744,7.268-5.239,11.064c-2.941,7.622-5.301,15.456-7.345,23.36c-1.026,3.953-1.895,7.945-2.713,11.945
			l-2.508,11.987c-1.704,7.985-3.492,15.952-5.502,23.866c-2.028,7.904-4.208,15.785-7.047,23.441
			c-1.445,3.809-3.008,7.607-5.19,11.056c-1.106,1.683-2.373,3.392-4.184,4.33c-0.895,0.474-1.978,0.55-2.916,0.179
			c-0.946-0.359-1.722-1.063-2.377-1.829c-1.326-1.546-2.178-3.44-2.848-5.354c-0.652-1.931-1.107-3.924-1.457-5.932
			c-0.69-4.021-0.989-8.102-1.146-12.178c-0.288-8.159,0.005-16.326,0.366-24.48c0.364-8.156,0.873-16.308,1.092-24.472
			c0.094-4.081,0.138-8.171-0.166-12.247c-0.168-2.034-0.398-4.077-0.974-6.047c-0.308-0.97-0.679-1.961-1.381-2.733
			c-0.345-0.39-0.803-0.675-1.301-0.825c-0.513-0.111-1.04-0.086-1.545,0.023c-1.011,0.246-1.892,0.845-2.643,1.536
			c-0.749,0.704-1.391,1.509-1.978,2.347c-1.159,1.688-2.115,3.502-2.985,5.35c-1.733,3.702-3.15,7.539-4.515,11.386
			c-2.729,7.695-5.084,15.525-8.136,23.099c-0.772,1.887-1.597,3.756-2.562,5.553c-0.975,1.772-2.043,3.574-3.635,4.846
			c-0.778,0.659-1.808,0.949-2.807,0.885c-1.009-0.057-1.934-0.59-2.642-1.307c-1.385-1.495-2.176-3.434-2.787-5.365
			c-1.201-3.898-1.736-7.971-2.117-12.027c-0.357-4.064-0.513-8.148-0.478-12.227l-2.613-0.049
			c-0.037,4.223,0.122,8.33,0.487,12.509c0.396,4.168,0.927,8.341,2.228,12.583c0.691,2.107,1.485,4.301,3.411,6.405
			c0.541,0.509,1.109,1.007,1.869,1.392c0.34,0.219,0.772,0.339,1.183,0.471c0.411,0.149,0.838,0.194,1.271,0.223l0.646,0.035
			c0.203-0.016,0.402-0.043,0.604-0.07c0.409-0.067,0.784-0.087,1.221-0.249c0.863-0.269,1.542-0.696,2.112-1.132
			c1.137-0.889,1.911-1.852,2.593-2.804c0.675-0.955,1.237-1.917,1.756-2.88c1.034-1.926,1.884-3.862,2.679-5.803
			c3.123-7.756,5.47-15.58,8.181-23.217c1.35-3.809,2.752-7.592,4.415-11.143c0.831-1.768,1.741-3.479,2.766-4.971
			c0.513-0.734,1.062-1.408,1.614-1.926c0.551-0.514,1.094-0.817,1.452-0.902c0.088-0.004,0.173-0.041,0.252-0.027
			c0.022-0.003,0.029-0.006,0.03-0.007c0.001,0.003,0,0.003-0.001,0.004c0.004,0.001,0.015,0.011,0.051,0.055
			c0.221,0.205,0.575,0.944,0.803,1.72c0.478,1.62,0.715,3.561,0.87,5.492c0.292,3.901,0.252,7.944,0.159,11.98
			c-0.216,8.09-0.725,16.24-1.09,24.418c-0.362,8.182-0.659,16.398-0.367,24.697c0.16,4.149,0.462,8.321,1.182,12.527
			c0.368,2.104,0.845,4.217,1.559,6.331c0.742,2.101,1.677,4.259,3.337,6.21c0.823,0.947,1.85,1.955,3.437,2.572l0.601,0.207
			c0.213,0.049,0.434,0.088,0.652,0.125c0.435,0.092,0.886,0.07,1.332,0.06c0.437-0.031,0.866-0.123,1.275-0.226
			c0.374-0.135,0.797-0.256,1.118-0.438c1.38-0.688,2.334-1.596,3.158-2.49c0.826-0.904,1.469-1.839,2.085-2.777
			c2.377-3.766,3.954-7.652,5.441-11.556c2.897-7.818,5.089-15.755,7.132-23.713c2.023-7.962,3.817-15.96,5.525-23.965l2.51-12.001
			c0.822-4.01,1.67-7.908,2.686-11.828c2.021-7.815,4.364-15.587,7.249-23.061c1.458-3.711,3.052-7.409,5.024-10.633
			c0.495-0.795,1.017-1.553,1.559-2.203c0.53-0.65,1.133-1.194,1.523-1.393c0.149-0.065,0.198-0.088,0.21-0.092
			c0-0.002,0.002,0,0.002-0.002c0.001,0,0.001,0.001,0.001,0.001c0.001-0.001,0.003,0.001,0.039,0.032
			c0.204,0.108,0.69,0.731,1.039,1.439c0.745,1.464,1.295,3.335,1.732,5.202c0.438,1.877,0.765,3.806,1.003,5.762
			c0.479,3.912,0.656,7.909,0.683,11.922c0.044,8.035-0.505,16.131-1.11,24.257c-0.3,4.067-0.628,8.142-0.86,12.267
			c-0.113,2.063-0.204,4.137-0.212,6.254c-0.001,1.061,0.017,2.13,0.085,3.229c0.036,0.551,0.085,1.109,0.155,1.683
			c0.044,0.293,0.072,0.573,0.131,0.877c0.057,0.299,0.097,0.569,0.219,1.028c0.084,0.385,0.277,0.868,0.452,1.344
			c0.215,0.439,0.42,0.9,0.722,1.264c0.58,0.741,1.356,1.289,2.258,1.528c0.901,0.225,1.849,0.134,2.739-0.243
			c0.458-0.137,0.869-0.451,1.303-0.679l0.588-0.462c0.158-0.139,0.251-0.25,0.38-0.377l0.722-0.741l0.549-0.616
			c0.353-0.409,0.733-0.805,1.059-1.227c0.666-0.84,1.366-1.658,1.971-2.533c2.516-3.443,4.721-7.095,6.478-10.957
			c0.956-1.939,1.694-3.77,2.542-5.609c0.83-1.834,1.685-3.644,2.596-5.387c0.907-1.73,1.884-3.451,2.946-4.814
			c0.263-0.334,0.531-0.641,0.781-0.884c0.144-0.145,0.151-0.145,0.149-0.142l0.071,0.145c0.058,0.119,0.11,0.207,0.186,0.423
			c0.148,0.353,0.277,0.763,0.4,1.186c0.243,0.849,0.432,1.775,0.597,2.716c0.311,1.868,0.554,3.953,0.792,5.935l1.308,12.177
			c0.248,2.063,0.503,4.13,0.957,6.291c0.24,1.093,0.485,2.163,1.021,3.428c0.21,0.428,0.381,0.842,0.691,1.244l0.437,0.608
			c0.16,0.187,0.341,0.351,0.519,0.517c0.735,0.613,1.639,1.062,2.611,1.058c0.966,0.074,1.905-0.335,2.773-0.795l0.592-0.417
			c0.177-0.131,0.445-0.299,0.528-0.391l0.707-0.652c0.419-0.434,0.83-0.871,1.176-1.314c0.359-0.445,0.741-0.875,1.053-1.352
			c1.341-1.851,2.384-3.871,3.212-5.893c1.636-4.065,2.58-8.075,3.751-11.912c0.586-1.953,1.218-3.871,1.922-5.748
			C221.668,198.513,221.217,197.298,220.771,196.08z"/>
		<path style="opacity:0.4;fill:#0F448C;" d="M407.707,186.583c-1.378,0.28-2.664,0.884-3.866,1.588
			c-1.205,0.707-2.347,1.51-3.524,2.25c-1.176,0.736-2.399,1.434-3.746,1.773c-1.335,0.347-2.796,0.226-4.028-0.411
			c-1.246-0.607-2.298-1.551-3.229-2.575c-0.957-1.017-1.677-2.198-2.64-3.262c-0.479-0.52-0.997-1.03-1.646-1.313
			c-0.32-0.131-0.714-0.167-1.017,0.034c-0.303,0.189-0.501,0.497-0.658,0.809c-0.569,1.3-0.696,2.761-0.839,4.128
			c-0.126,1.39-0.193,2.783-0.25,4.176l-0.305,8.354c-0.266,5.558-0.694,11.148-2.078,16.55c-0.354,1.346-0.776,2.674-1.293,3.965
			c-0.539,1.268-1.063,2.613-2.036,3.566c-0.478,0.469-1.257,0.709-1.87,0.344c-0.609-0.314-1.064-0.848-1.473-1.392
			c-0.797-1.136-1.409-2.393-1.967-3.666c-2.163-5.134-3.657-10.522-5.159-15.884c-2.937-10.754-5.535-21.597-8.428-32.363
			c-1.443-5.385-2.947-10.754-4.607-16.076c-1.667-5.318-3.473-10.604-5.712-15.713c-0.567-1.278-1.122-2.547-1.961-3.715
			c-0.428-0.551-0.915-1.137-1.616-1.315c-0.741-0.173-1.354,0.431-1.723,0.997c-0.777,1.207-1.164,2.579-1.534,3.914
			c-0.355,1.35-0.632,2.719-0.878,4.091c-0.957,5.497-1.486,11.053-1.977,16.605c-1.845,22.223-2.532,44.523-4.514,66.73
			c-0.514,5.549-1.099,11.096-2.01,16.593c-0.471,2.743-1,5.487-1.833,8.143c-0.43,1.317-0.911,2.644-1.703,3.78
			c-0.401,0.553-0.907,1.076-1.584,1.232c-0.652,0.209-1.38,0.086-1.93-0.322c-0.551-0.402-0.986-0.961-1.323-1.563
			c-0.347-0.6-0.626-1.237-0.871-1.887c-0.486-1.303-0.846-2.65-1.157-4.006c-0.606-2.718-1.024-5.475-1.379-8.238
			c-0.698-5.528-1.149-11.086-1.581-16.642c-0.868-11.11-1.496-22.253-2.987-33.308c-0.386-2.761-0.829-5.516-1.432-8.24
			c-0.606-2.717-1.332-5.436-2.568-7.949c-0.645-1.221-1.396-2.48-2.605-3.242c-1.177-0.755-2.672-1.084-4.042-0.711
			c-1.381,0.365-2.487,1.34-3.4,2.381c-0.909,1.064-1.653,2.257-2.322,3.48c-2.598,4.955-4.225,10.326-5.88,15.639
			c-1.637,5.328-3.12,10.707-5.041,15.938c-0.99,2.593-2.032,5.214-3.669,7.466c-0.824,1.099-1.904,2.101-3.296,2.332
			c-1.351,0.388-2.831-0.259-3.543-1.452c-0.759-1.158-1.157-2.516-1.485-3.86c-0.322-1.352-0.543-2.729-0.745-4.106
			c-0.406-2.756-0.714-5.529-1.208-8.275c-0.498-2.736-1.123-5.492-2.378-8c-0.624-1.246-1.424-2.434-2.502-3.342
			c-1.062-0.926-2.387-1.502-3.759-1.775c-1.368-0.266-2.832-0.23-4.145,0.285c-1.326,0.489-2.43,1.438-3.306,2.523
			c-1.729,2.222-2.698,4.906-3.472,7.572c-1.503,5.383-2.183,10.938-3.072,16.434c-0.447,2.748-0.904,5.502-1.64,8.188
			c-0.372,1.338-0.811,2.669-1.466,3.893c-0.64,1.198-1.591,2.385-2.963,2.688c-0.866,0.176-1.737-0.182-2.461-0.658
			c-0.741-0.478-1.371-1.109-1.966-1.761c-1.18-1.319-2.186-2.786-3.125-4.288c-1.868-3.016-3.467-6.19-4.979-9.399
			c-2.984-6.4-5.584-12.973-8.044-19.591c0.01-0.021,0.02-0.043,0.029-0.064c-0.69-1.683-1.353-3.374-1.886-5.114
			c-4.161-11.678-7.904-23.504-11.376-35.404c-3.949-13.635-7.584-27.367-10.611-41.237c-3.077-13.852-4.981-27.994-5.105-42.193
			c-0.042-7.094,0.333-14.201,1.402-21.218c1.097-6.994,2.805-13.969,5.927-20.352c1.557-3.18,3.478-6.202,5.887-8.803
			c2.397-2.598,5.314-4.761,8.62-6.051c3.288-1.301,6.88-1.866,10.403-1.526c0.888,0.028,1.746,0.273,2.618,0.421
			c0.863,0.189,1.7,0.49,2.545,0.749c1.642,0.658,3.253,1.412,4.725,2.401c2.977,1.925,5.565,4.406,7.814,7.14
			c2.254,2.738,4.165,5.747,5.833,8.875c3.317,6.271,5.692,13.029,7.155,19.967c0.712,3.472,1.22,6.997,1.294,10.543
			c0.051,1.76-0.067,3.577-0.274,5.362c-0.044,0.439-0.072,0.891,0.045,1.32c0.06,0.208,0.183,0.423,0.397,0.507
			c0.211,0.084,0.444,0.043,0.654-0.02c0.835-0.316,1.525-0.914,2.203-1.504c2.662-2.477,4.851-5.222,7.085-7.998
			c2.201-2.783,4.335-5.63,6.399-8.507c2.866-2.892,5.896-5.648,9.164-8.086c3.267-2.434,6.791-4.559,10.598-6.025
			c3.779-1.481,7.942-2.188,11.97-1.543c4.044,0.596,7.747,2.776,10.5,5.759c1.366,1.508,2.554,3.177,3.532,4.965
			c0.941,1.805,1.784,3.669,2.38,5.62c1.275,3.877,1.849,7.954,2.041,12.021c0.214,8.15-1.064,16.345-3.872,24.01
			c-2.777,7.682-6.948,14.805-11.849,21.32c-4.908,6.525-10.523,12.484-16.442,18.099l-4.519,4.13
			c-1.529,1.352-3.113,2.639-4.668,3.961l-2.342,1.972l-2.407,1.892l-4.824,3.77l-4.937,3.621c-1.654,1.195-3.279,2.432-4.977,3.565
			l-10.098,6.931c-6.717,4.64-13.126,9.761-18.9,15.543c-4.332,4.337-8.24,9.142-11.419,14.392c0.381,1.066,0.768,2.132,1.141,3.202
			c3.221-5.765,7.399-11.013,12.133-15.753c5.623-5.631,11.912-10.662,18.536-15.237l10.105-6.934
			c1.709-1.141,3.349-2.389,5.016-3.593l4.978-3.651l4.871-3.806l2.43-1.91l2.369-1.993c1.572-1.338,3.173-2.641,4.722-4.008
			l4.58-4.186c6.005-5.696,11.721-11.758,16.747-18.44c5.016-6.671,9.325-14.013,12.209-21.988
			c2.918-7.967,4.258-16.492,4.028-25.013c-0.201-4.268-0.802-8.565-2.165-12.717c-0.639-2.085-1.545-4.107-2.574-6.07
			c-1.066-1.952-2.377-3.801-3.908-5.488c-3.074-3.348-7.368-5.884-11.999-6.563c-2.291-0.339-4.633-0.4-6.864-0.029
			c-0.569,0.052-1.117,0.172-1.664,0.294c-0.546,0.125-1.104,0.223-1.64,0.373c-1.053,0.34-2.147,0.604-3.151,1.042
			c-4.111,1.583-7.82,3.835-11.228,6.37c-0.872,0.614-1.687,1.288-2.504,1.96l-1.228,1.005l-1.178,1.053
			c-0.774,0.712-1.588,1.389-2.321,2.138l-2.371,2.326l-1.67,2.306l-1.571,2.115c-1.055,1.403-2.124,2.795-3.209,4.165
			c-1.086,1.37-2.189,2.721-3.315,4.024c-0.564,0.651-1.133,1.29-1.708,1.905l-0.452,0.475l0.016-0.338l0.014-0.296l0.007-0.147
			l0-0.307l-0.009-1.416c-0.081-3.765-0.611-7.421-1.349-11.021c-1.517-7.185-3.958-14.139-7.407-20.663
			c-1.735-3.253-3.731-6.4-6.118-9.302c-2.383-2.896-5.155-5.567-8.421-7.681c-1.613-1.081-3.402-1.928-5.237-2.657
			c-0.946-0.295-1.886-0.628-2.856-0.842c-0.981-0.173-1.949-0.437-2.949-0.475c-3.984-0.382-7.966,0.249-11.639,1.702
			c-3.696,1.444-6.944,3.861-9.557,6.695c-2.629,2.838-4.676,6.078-6.321,9.434c-3.291,6.74-5.034,13.933-6.163,21.105
			c-1.095,7.191-1.475,14.428-1.432,21.636c0.124,14.406,2.064,28.767,5.165,42.726c3.046,13.957,6.692,27.729,10.655,41.413
			c3.899,13.364,8.116,26.64,12.921,39.745c-0.037,0.081-0.074,0.162-0.11,0.243c0.431,1.194,0.868,2.388,1.321,3.573
			c0.038-0.094,0.075-0.188,0.112-0.281c2.199,5.813,4.525,11.588,7.176,17.273c1.54,3.267,3.168,6.507,5.127,9.672
			c0.99,1.58,2.052,3.143,3.406,4.66c0.695,0.754,1.426,1.507,2.471,2.192c0.52,0.337,1.107,0.667,1.863,0.892
			c0.338,0.132,0.799,0.179,1.231,0.227c0.439,0.037,0.887-0.033,1.324-0.085c1.29-0.276,2.329-0.97,3.075-1.716
			c0.749-0.749,1.251-1.534,1.664-2.293c0.813-1.525,1.278-2.991,1.685-4.436c0.789-2.885,1.247-5.689,1.702-8.472
			c0.892-5.539,1.579-11.042,3.005-16.13c0.713-2.508,1.66-4.957,3.001-6.657c1.375-1.696,2.831-2.253,4.932-1.87
			c1,0.215,1.798,0.559,2.532,1.188c0.732,0.606,1.358,1.502,1.875,2.541c1.05,2.082,1.667,4.655,2.136,7.277
			c0.476,2.64,0.781,5.378,1.195,8.196c0.207,1.409,0.434,2.842,0.788,4.33c0.377,1.485,0.771,3.036,1.871,4.733
			c0.114,0.205,0.314,0.424,0.492,0.634c0.193,0.21,0.345,0.419,0.584,0.616c0.484,0.395,0.969,0.774,1.61,1.01
			c0.607,0.297,1.241,0.35,1.875,0.43c0.571-0.006,1.184-0.041,1.683-0.157l0.726-0.2c0.238-0.066,0.475-0.134,0.761-0.27
			c0.28-0.117,0.537-0.251,0.764-0.397c0.247-0.143,0.464-0.296,0.661-0.455c0.816-0.633,1.41-1.317,1.93-1.994
			c1-1.357,1.719-2.717,2.352-4.07c0.632-1.354,1.175-2.705,1.678-4.056c1.98-5.397,3.46-10.786,5.091-16.085
			c0.809-2.647,1.636-5.274,2.552-7.834c0.917-2.554,1.917-5.064,3.128-7.324c0.609-1.117,1.278-2.17,2.002-3.018
			c0.723-0.838,1.508-1.434,2.102-1.564c0.301-0.078,0.578-0.087,0.915-0.023c0.165,0.021,0.352,0.098,0.54,0.154
			c0.19,0.096,0.431,0.189,0.506,0.264c0.488,0.256,1.164,1.199,1.675,2.218c1.05,2.122,1.773,4.725,2.347,7.331
			c0.581,2.621,1.015,5.32,1.395,8.035c1.47,10.891,2.101,22.02,2.97,33.148c0.433,5.572,0.885,11.155,1.594,16.774
			c0.362,2.81,0.786,5.629,1.422,8.484c0.329,1.43,0.709,2.869,1.261,4.351c0.281,0.741,0.605,1.495,1.057,2.277
			c0.442,0.766,1.034,1.626,2.086,2.392c0.265,0.189,0.543,0.368,0.905,0.508c0.337,0.151,0.687,0.271,1.082,0.321
			c0.389,0.075,0.767,0.095,1.132,0.052c0.185-0.016,0.37-0.035,0.552-0.06c0.167-0.035,0.32-0.082,0.479-0.129
			c0.698-0.185,1.316-0.533,1.844-0.971c0.52-0.435,0.833-0.84,1.14-1.25c1.109-1.615,1.583-3.061,2.069-4.511
			c0.902-2.882,1.435-5.689,1.92-8.503c0.93-5.616,1.517-11.202,2.035-16.787c1.99-22.316,2.678-44.627,4.515-66.746
			c0.485-5.51,1.017-11.04,1.946-16.368c0.237-1.326,0.504-2.638,0.831-3.882c0.164-0.615,0.347-1.23,0.542-1.767l0.115-0.308
			l0.022,0.035c0.132,0.236,0.283,0.501,0.418,0.775c0.273,0.531,0.542,1.145,0.82,1.77c2.172,4.957,3.959,10.174,5.608,15.438
			c1.645,5.27,3.139,10.609,4.577,15.973c2.883,10.73,5.477,21.561,8.433,32.38c0.744,2.705,1.516,5.409,2.361,8.113
			c0.851,2.705,1.753,5.403,2.922,8.122c0.604,1.364,1.242,2.723,2.25,4.159c0.728,0.962,1.792,2.056,3.011,2.427
			c1.217,0.465,2.609,0.175,3.66-0.568c1.036-0.709,1.972-2.16,2.283-2.813c0.374-0.736,0.675-1.409,0.962-2.127
			c0.567-1.415,1.02-2.846,1.397-4.277c1.466-5.736,1.887-11.46,2.161-17.093l0.305-8.368c0.056-1.373,0.123-2.736,0.242-4.041
			l0.102-0.963l0.07-0.524l0.609,0.797c0.467,0.61,0.935,1.22,1.48,1.809c1.071,1.17,2.324,2.337,4.036,3.178
			c1.674,0.885,3.981,1.088,5.789,0.59c1.837-0.471,3.247-1.314,4.506-2.096c1.261-0.795,2.369-1.572,3.453-2.207
			c1.076-0.633,2.103-1.086,3.048-1.279c0.942-0.166,1.811-0.104,2.74,0.229l0.903-2.453
			C410.534,186.436,409.086,186.319,407.707,186.583z"/>
		<path style="opacity:0.4;fill:#0F448C;" d="M223.614,190.287c0.378,1.091,0.805,2.162,1.241,3.232
			c0.217-0.428,0.429-0.859,0.654-1.283c-0.382-1.093-0.778-2.18-1.165-3.27C224.091,189.4,223.856,189.846,223.614,190.287z"/>
		<path style="fill:#6C6B5C;" d="M220.267,192.476c-1.834,3.773-3.245,7.733-4.428,11.683c-1.199,3.955-2.156,7.921-3.604,11.496
			c-0.731,1.782-1.604,3.453-2.69,4.952c-0.251,0.391-0.564,0.731-0.852,1.092c-0.287,0.373-0.592,0.689-0.894,1.008l-0.449,0.414
			c-0.133,0.123-0.139,0.111-0.214,0.173c-0.099,0.06-0.192,0.116-0.306,0.118c-0.111,0.006-0.215-0.051-0.287-0.132
			c-0.076-0.076-0.117-0.169-0.202-0.346c-0.295-0.685-0.542-1.624-0.735-2.544c-0.394-1.871-0.648-3.869-0.887-5.866l-1.308-12.178
			c-0.249-2.062-0.475-4.046-0.826-6.175c-0.186-1.057-0.398-2.117-0.708-3.203c-0.157-0.543-0.329-1.091-0.563-1.656
			c-0.09-0.262-0.261-0.597-0.422-0.909c-0.092-0.163-0.139-0.3-0.273-0.482l-0.397-0.547c-0.241-0.389-0.588-0.667-0.917-0.957
			c-0.169-0.138-0.371-0.226-0.555-0.341c-0.183-0.12-0.381-0.206-0.592-0.266c-0.82-0.274-1.743-0.228-2.549,0.119
			c-0.417,0.129-0.792,0.413-1.173,0.624c-0.17,0.127-0.338,0.258-0.503,0.395c-0.171,0.139-0.329,0.279-0.421,0.379
			c-0.458,0.445-0.843,0.896-1.2,1.348c-1.402,1.813-2.419,3.66-3.403,5.521c-0.973,1.861-1.857,3.737-2.708,5.617
			c-0.859,1.865-1.649,3.809-2.515,5.552c-1.635,3.604-3.697,7.009-6.017,10.186c-0.56,0.814-1.199,1.555-1.808,2.324
			c-0.299,0.392-0.637,0.735-0.954,1.105l-0.476,0.538l-0.383,0.398l-0.181,0.188l-0.06,0.057c-0.046,0.028-0.09,0.063-0.14,0.086
			c-0.095,0.05-0.206,0.088-0.315,0.063c-0.109-0.023-0.19-0.111-0.241-0.206c-0.029-0.047-0.047-0.099-0.067-0.149
			c-0.016-0.05-0.03-0.088-0.063-0.233c-0.025-0.078-0.066-0.316-0.106-0.529c-0.043-0.208-0.065-0.442-0.1-0.662
			c-0.056-0.455-0.097-0.924-0.128-1.4c-0.059-0.955-0.077-1.938-0.076-2.928c0.006-1.982,0.094-3.996,0.205-6.014
			c0.227-4.039,0.553-8.105,0.854-12.18c0.605-8.151,1.167-16.354,1.123-24.625c-0.029-4.135-0.208-8.29-0.718-12.454
			c-0.254-2.081-0.604-4.165-1.089-6.241c-0.497-2.072-1.061-4.141-2.118-6.252c-0.568-1.041-1.181-2.158-2.529-3.121
			c-0.672-0.482-1.62-0.837-2.517-0.828c-0.927-0.016-1.802,0.287-2.442,0.629c-1.303,0.719-2.134,1.615-2.883,2.495
			c-0.741,0.89-1.362,1.802-1.937,2.724c-2.253,3.695-3.877,7.525-5.4,11.387c-2.983,7.732-5.355,15.613-7.417,23.584
			c-1.033,3.979-1.917,8.041-2.734,12.031l-2.505,11.979c-1.701,7.971-3.483,15.916-5.485,23.792
			c-2.017,7.864-4.189,15.706-6.983,23.239c-1.415,3.737-2.966,7.472-5.003,10.682c-0.994,1.566-2.248,3.07-3.394,3.631
			c-0.573,0.281-0.913,0.268-1.376,0.109c-0.467-0.165-1.056-0.642-1.584-1.273c-1.077-1.244-1.867-2.942-2.483-4.717
			c-0.606-1.793-1.043-3.697-1.38-5.634c-0.667-3.884-0.964-7.893-1.118-11.915c-0.284-8.055,0.004-16.186,0.365-24.32
			c0.363-8.14,0.873-16.291,1.093-24.511c0.094-4.114,0.142-8.239-0.171-12.447c-0.178-2.11-0.403-4.23-1.051-6.461
			c-0.368-1.114-0.752-2.292-1.813-3.489c-0.535-0.607-1.373-1.152-2.237-1.39c-0.442-0.083-0.91-0.165-1.331-0.135
			c-0.396-0.005-0.775,0.071-1.156,0.143c-1.498,0.367-2.632,1.184-3.532,2.009c-0.896,0.844-1.608,1.746-2.25,2.66
			c-1.26,1.836-2.25,3.727-3.149,5.633c-1.786,3.816-3.214,7.693-4.59,11.568c-2.743,7.739-5.104,15.573-8.102,23.01
			c-0.756,1.848-1.561,3.667-2.473,5.365c-0.895,1.668-1.975,3.348-3.102,4.221c-0.272,0.211-0.53,0.357-0.727,0.409
			c-0.081,0.052-0.252,0.036-0.378,0.066L76.85,229.6c-0.059-0.013-0.117-0.02-0.175-0.026c-0.456-0.027-0.886-0.238-1.387-0.725
			c-0.484-0.508-0.928-1.232-1.327-2.008c-0.371-0.814-0.72-1.666-0.994-2.58c-1.126-3.645-1.665-7.64-2.034-11.613
			c-0.351-3.979-0.505-8.045-0.47-12.017l-0.877-0.017c-0.035,4.02,0.12,8.095,0.473,12.111c0.374,4.011,0.912,8.041,2.071,11.8
			c0.578,1.858,1.367,3.691,2.53,4.936c0.594,0.59,1.247,0.945,1.951,0.986l0.265,0.028l0.279-0.045
			c0.18-0.037,0.391-0.028,0.54-0.102c0.325-0.093,0.665-0.294,0.994-0.548c1.336-1.053,2.41-2.787,3.341-4.502
			c0.936-1.742,1.75-3.584,2.513-5.449c3.021-7.498,5.38-15.33,8.117-23.05c1.37-3.862,2.794-7.722,4.556-11.485
			c0.886-1.88,1.861-3.737,3.075-5.507c0.617-0.88,1.298-1.738,2.127-2.519c0.834-0.765,1.854-1.483,3.133-1.797
			c0.324-0.058,0.646-0.126,0.982-0.12c0.349-0.029,0.722,0.044,1.081,0.105c0.7,0.198,1.367,0.626,1.816,1.136
			c0.9,1.006,1.278,2.101,1.619,3.15c0.616,2.114,0.843,4.199,1.017,6.274c0.308,4.149,0.262,8.258,0.168,12.357
			c-0.219,8.195-0.729,16.347-1.092,24.494c-0.361,8.143-0.651,16.29-0.365,24.393c0.155,4.045,0.453,8.087,1.13,12.032
			c0.343,1.969,0.788,3.913,1.415,5.769c0.641,1.836,1.459,3.623,2.647,5.003c0.585,0.692,1.258,1.271,1.94,1.522
			c0.677,0.255,1.351,0.228,2.069-0.14c1.445-0.731,2.705-2.327,3.749-3.945c2.102-3.317,3.658-7.081,5.087-10.851
			c2.813-7.588,4.99-15.447,7.011-23.33c2.006-7.893,3.79-15.848,5.493-23.824l2.506-11.982c0.818-3.995,1.695-8.025,2.725-11.992
			c2.054-7.942,4.42-15.801,7.384-23.484c1.51-3.832,3.129-7.637,5.328-11.242c0.56-0.896,1.162-1.779,1.865-2.623
			c0.707-0.836,1.495-1.664,2.622-2.283c0.558-0.296,1.268-0.538,2.014-0.527c0.729-0.008,1.482,0.275,2.041,0.676
			c1.127,0.799,1.716,1.822,2.242,2.799c0.998,1.986,1.559,4.016,2.044,6.05c0.476,2.037,0.821,4.091,1.073,6.148
			c0.504,4.116,0.683,8.241,0.711,12.353c0.044,8.227-0.515,16.407-1.12,24.555c-0.301,4.072-0.627,8.141-0.855,12.195
			c-0.111,2.027-0.199,4.052-0.206,6.061c-0.001,1.002,0.017,2.002,0.078,2.985c0.057,0.958,0.179,2.005,0.366,2.784
			c0.085,0.361,0.16,0.572,0.303,0.841c0.135,0.245,0.345,0.474,0.628,0.536c0.282,0.064,0.57-0.037,0.818-0.168
			c0.13-0.059,0.243-0.147,0.364-0.222l0.154-0.147l0.218-0.226l0.448-0.466l0.49-0.553c0.324-0.377,0.669-0.731,0.974-1.129
			c0.619-0.783,1.27-1.539,1.839-2.364c2.358-3.229,4.448-6.68,6.106-10.333c0.884-1.781,1.664-3.703,2.52-5.564
			c0.847-1.871,1.726-3.734,2.686-5.573c0.969-1.836,1.979-3.659,3.316-5.385c0.339-0.43,0.702-0.854,1.119-1.259
			c0.185-0.198,0.512-0.449,0.772-0.655c0.308-0.179,0.607-0.411,0.945-0.526c0.648-0.304,1.411-0.358,2.08-0.124
			c0.668,0.24,1.248,0.704,1.66,1.309c0.218,0.301,0.433,0.598,0.548,0.865c0.14,0.276,0.29,0.563,0.376,0.816
			c0.218,0.524,0.381,1.046,0.532,1.566c0.297,1.039,0.505,2.074,0.687,3.108c0.344,2.079,0.573,4.083,0.82,6.129l1.307,12.178
			c0.24,2.011,0.495,4.02,0.9,5.947c0.202,0.954,0.449,1.918,0.79,2.714c0.144,0.3,0.261,0.559,0.46,0.764
			c0.189,0.209,0.459,0.358,0.747,0.342c0.292-0.003,0.544-0.156,0.789-0.303c0.13-0.104,0.227-0.158,0.385-0.301l0.499-0.46
			c0.324-0.341,0.649-0.681,0.948-1.066c0.302-0.377,0.628-0.734,0.891-1.143c1.135-1.566,2.04-3.305,2.79-5.133
			c1.484-3.669,2.438-7.643,3.632-11.576c1.094-3.649,2.39-7.278,4.02-10.765C220.545,193.259,220.403,192.869,220.267,192.476z"/>
		<path style="fill:#6C6B5C;" d="M407.332,184.667c-1.7,0.346-3.18,1.063-4.477,1.818c-1.295,0.762-2.462,1.584-3.578,2.283
			c-1.112,0.703-2.198,1.291-3.178,1.531c-0.982,0.232-1.811,0.174-2.714-0.277c-0.897-0.434-1.8-1.211-2.625-2.125
			c-0.42-0.45-0.809-0.96-1.199-1.468l-0.323-0.425l-0.171-0.227l-0.086-0.113l-0.133-0.162l-0.534-0.646l-0.631-0.667
			c-0.864-0.865-1.817-1.447-2.797-1.578c-0.487-0.065-1.041-0.026-1.518,0.202c-0.477,0.213-0.859,0.531-1.186,0.92
			c-0.641,0.793-1.048,1.939-1.274,3.159l-0.144,0.849l-0.078,0.582l-0.116,1.1c-0.132,1.452-0.199,2.868-0.257,4.275l-0.304,8.345
			c-0.26,5.502-0.694,10.993-2.017,16.145c-0.337,1.281-0.736,2.533-1.216,3.73c-0.235,0.592-0.51,1.199-0.78,1.729
			c-0.32,0.59-0.288,0.523-0.423,0.67c-0.104,0.103-0.276,0.155-0.41,0.075c-0.144-0.082-0.202-0.146-0.377-0.374
			c-0.64-0.911-1.232-2.095-1.756-3.299c-2.074-4.914-3.579-10.301-5.066-15.621c-2.924-10.703-5.525-21.557-8.424-32.352
			c-1.448-5.399-2.957-10.791-4.63-16.152c-1.681-5.359-3.501-10.694-5.789-15.92c-0.288-0.645-0.574-1.304-0.926-1.994
			c-0.17-0.342-0.356-0.678-0.559-1.031l-0.484-0.76l-0.552-0.73c-0.79-0.909-1.718-1.569-2.801-1.686
			c-1.123-0.119-2.148,0.414-2.887,1.252c-0.391,0.408-0.703,0.938-0.99,1.474c-0.147,0.267-0.258,0.562-0.389,0.841
			c-0.115,0.265-0.163,0.414-0.247,0.628c-0.272,0.749-0.479,1.459-0.671,2.178c-0.376,1.429-0.661,2.84-0.913,4.247
			c-0.978,5.622-1.506,11.198-2,16.78c-1.85,22.3-2.538,44.593-4.513,66.721c-0.511,5.521-1.095,11.038-1.991,16.446
			c-0.46,2.691-0.985,5.387-1.768,7.873c-0.387,1.219-0.873,2.456-1.43,3.236c-0.13,0.176-0.275,0.348-0.35,0.4
			c-0.065,0.049-0.128,0.092-0.188,0.094c-0.204,0.029-0.075,0.057-0.272-0.049c-0.178-0.129-0.495-0.462-0.753-0.943
			c-0.269-0.461-0.514-1.014-0.732-1.594c-0.436-1.169-0.782-2.447-1.079-3.748c-0.584-2.615-0.997-5.327-1.347-8.054
			c-0.69-5.462-1.14-10.999-1.57-16.544c-0.868-11.098-1.493-22.249-3-33.427c-0.391-2.795-0.839-5.592-1.459-8.392
			c-0.63-2.8-1.358-5.607-2.733-8.412c-0.355-0.699-0.752-1.4-1.28-2.086c-0.231-0.346-0.574-0.679-0.868-1.01
			c-0.367-0.316-0.691-0.646-1.152-0.91c-0.451-0.306-0.845-0.459-1.257-0.648c-0.441-0.157-0.879-0.313-1.365-0.398
			c-0.954-0.189-2.01-0.167-2.974,0.098c-1.968,0.539-3.314,1.797-4.371,2.99c-1.047,1.229-1.847,2.523-2.561,3.827
			c-1.399,2.616-2.447,5.286-3.411,7.959c-0.957,2.675-1.801,5.36-2.62,8.038c-1.643,5.349-3.126,10.722-5.003,15.828
			c-0.949,2.512-2.004,5.068-3.399,6.972c-0.348,0.455-0.716,0.854-1.061,1.118c-0.086,0.072-0.169,0.131-0.248,0.172
			c-0.081,0.057-0.156,0.094-0.225,0.118c-0.121,0.073-0.415,0.114-0.609,0.189c-0.21,0.052-0.363,0.032-0.528,0.063
			c-0.11-0.054-0.256-0.006-0.331-0.086c-0.1-0.006-0.192-0.121-0.308-0.188c-0.11-0.127-0.239-0.242-0.36-0.434
			c-0.505-0.756-0.906-1.971-1.197-3.209c-0.299-1.252-0.515-2.587-0.713-3.941c-0.4-2.708-0.709-5.506-1.217-8.332
			c-0.518-2.821-1.151-5.715-2.559-8.541c-0.703-1.4-1.634-2.807-2.969-3.938c-1.307-1.149-3.026-1.9-4.676-2.215
			c-1.614-0.316-3.487-0.291-5.197,0.379c-1.727,0.642-3.11,1.853-4.135,3.129c-2.02,2.611-3.005,5.472-3.825,8.256
			c-1.561,5.604-2.235,11.195-3.122,16.66c-0.442,2.724-0.898,5.44-1.594,7.976c-0.348,1.259-0.765,2.488-1.303,3.486
			c-0.267,0.495-0.566,0.928-0.86,1.218c-0.29,0.292-0.569,0.433-0.776,0.483c-0.109-0.013-0.153,0.024-0.337-0.042
			c-0.168-0.045-0.412-0.167-0.663-0.335c-0.513-0.323-1.069-0.865-1.589-1.438c-1.05-1.173-2.017-2.568-2.916-4.012
			c-1.8-2.903-3.377-6.028-4.868-9.193c-2.962-6.352-5.561-12.922-8.019-19.541c-0.764-2.068-1.488-4.154-2.223-6.234
			c0.028-0.047,0.058-0.094,0.087-0.14c-0.138-0.345-0.271-0.691-0.399-1.04c-0.023,0.037-0.047,0.072-0.069,0.109
			c-3.826-10.901-7.306-21.94-10.545-33.045c-3.939-13.598-7.565-27.301-10.577-41.106c-3.059-13.771-4.937-27.752-5.062-41.796
			c-0.041-7.009,0.331-14.021,1.38-20.906c1.074-6.861,2.755-13.673,5.75-19.79c1.492-3.047,3.318-5.908,5.563-8.331
			c2.237-2.422,4.906-4.396,7.92-5.569c3-1.188,6.302-1.704,9.48-1.394c0.805,0.019,1.581,0.251,2.371,0.379
			c0.782,0.171,1.542,0.449,2.312,0.68c1.497,0.605,2.976,1.289,4.342,2.21c5.536,3.604,9.764,9.253,12.981,15.291
			c3.218,6.082,5.544,12.695,6.967,19.448c0.693,3.375,1.184,6.803,1.254,10.186l0.008,1.264c0.011,0.165-0.016,0.512-0.039,0.836
			l-0.066,0.963l-0.065,0.963c-0.019,0.325-0.001,0.702-0.003,1.051l0.007,1.066c0.02,0.327-0.04,0.78,0.066,0.972
			c0.143,0.499,0.336,0.891,0.656,1.265c0.163,0.181,0.384,0.377,0.666,0.51c0.281,0.127,0.55,0.188,0.806,0.211
			c0.986,0.072,2.061-0.319,3.25-1.211c0.582-0.446,1.169-0.951,1.731-1.507c0.295-0.278,0.534-0.532,0.797-0.797l0.505-0.529
			c0.63-0.674,1.237-1.354,1.831-2.041c1.187-1.374,2.325-2.769,3.44-4.176c1.115-1.407,2.205-2.827,3.28-4.258l1.601-2.154
			l1.479-2.036l2.04-2.001c0.699-0.717,1.465-1.35,2.198-2.024l1.112-0.995l1.152-0.941c0.766-0.63,1.529-1.264,2.337-1.829
			c3.162-2.356,6.547-4.391,10.127-5.767c3.561-1.398,7.373-2.016,10.964-1.44c3.605,0.533,6.867,2.448,9.381,5.158
			c1.242,1.375,2.34,2.908,3.251,4.575c0.876,1.685,1.672,3.433,2.236,5.284c1.209,3.67,1.763,7.584,1.948,11.501
			c0.204,7.874-1.028,15.821-3.755,23.26c-2.696,7.462-6.765,14.423-11.579,20.822c-4.821,6.408-10.36,12.291-16.215,17.844
			l-4.473,4.089c-1.515,1.339-3.087,2.616-4.628,3.927l-2.322,1.955l-2.389,1.877l-4.79,3.743l-4.907,3.599
			c-1.645,1.188-3.258,2.417-4.949,3.544l-10.092,6.927c-6.787,4.688-13.285,9.875-19.173,15.771
			c-3.789,3.793-7.278,7.967-10.268,12.487c0.108,0.363,0.218,0.726,0.331,1.088c3.036-4.699,6.633-9.026,10.56-12.958
			c5.836-5.845,12.295-11.002,19.05-15.668l10.095-6.929c1.694-1.13,3.313-2.362,4.961-3.554l4.92-3.608l4.805-3.755l2.397-1.884
			l2.331-1.962c1.546-1.316,3.124-2.598,4.645-3.942l4.494-4.106c5.884-5.581,11.457-11.498,16.317-17.959
			c4.853-6.451,8.967-13.486,11.7-21.047c2.764-7.54,4.016-15.598,3.808-23.597c-0.188-3.984-0.751-7.972-1.99-11.734
			c-0.579-1.896-1.396-3.697-2.301-5.436c-0.94-1.722-2.079-3.315-3.377-4.751c-2.622-2.832-6.082-4.866-9.884-5.428
			c-3.788-0.606-7.757,0.051-11.417,1.486c-7.365,2.855-13.77,8.229-19.323,13.807l-1.516,2.088l-1.595,2.146
			c-1.071,1.426-2.158,2.84-3.267,4.24c-1.11,1.4-2.241,2.786-3.416,4.146c-0.588,0.68-1.188,1.353-1.808,2.016l-0.484,0.509
			l-0.653,0.655c-0.453,0.451-0.924,0.869-1.395,1.25c-0.959,0.757-1.861,1.241-2.779,1.344c-0.235,0.016-0.488,0-0.738-0.108
			c-0.251-0.11-0.428-0.314-0.545-0.508c-0.229-0.398-0.322-0.817-0.381-1.29c-0.021-1.062,0.035-2.389,0.102-3.439l0.051-0.832
			c0.017-0.279,0.038-0.571,0.029-0.762l-0.008-1.293c-0.072-3.456-0.57-6.928-1.272-10.347c-1.44-6.835-3.789-13.515-7.051-19.681
			c-3.266-6.121-7.552-11.882-13.281-15.616c-1.413-0.952-2.952-1.668-4.514-2.296c-0.803-0.244-1.598-0.532-2.417-0.711
			c-0.827-0.137-1.64-0.375-2.481-0.398c-3.333-0.324-6.767,0.214-9.896,1.453c-3.145,1.226-5.926,3.284-8.235,5.786
			c-2.318,2.503-4.187,5.437-5.709,8.543c-3.052,6.236-4.745,13.121-5.83,20.043c-1.058,6.944-1.432,13.999-1.39,21.046
			c0.125,14.114,2.015,28.168,5.082,41.975c3.018,13.834,6.648,27.551,10.592,41.164c3.312,11.354,6.877,22.639,10.807,33.785
			c-0.011,0.02-0.021,0.039-0.033,0.059c0.134,0.361,0.259,0.727,0.387,1.09c0.011-0.021,0.022-0.042,0.034-0.063
			c0.656,1.848,1.297,3.701,1.975,5.539c2.463,6.635,5.068,13.221,8.047,19.609c1.5,3.184,3.087,6.331,4.918,9.285
			c0.917,1.469,1.901,2.896,3.01,4.136c0.555,0.608,1.143,1.19,1.759,1.583c0.626,0.409,1.194,0.6,1.657,0.504
			c0.847-0.17,1.654-1.041,2.232-2.145c0.591-1.1,1.018-2.375,1.376-3.669c0.714-2.602,1.17-5.337,1.615-8.071
			c0.888-5.479,1.565-11.055,3.1-16.558c0.799-2.732,1.777-5.513,3.666-7.949c0.958-1.191,2.215-2.283,3.762-2.857
			c1.532-0.601,3.221-0.63,4.724-0.337c1.525,0.296,3.067,0.968,4.264,2.017c1.219,1.031,2.092,2.339,2.759,3.67
			c1.339,2.684,1.969,5.516,2.478,8.299c0.501,2.789,0.81,5.576,1.213,8.307c0.199,1.364,0.418,2.717,0.728,4.015
			c0.308,1.286,0.707,2.565,1.326,3.503c0.319,0.443,0.659,0.809,1.056,0.936c0.177,0.121,0.416,0.094,0.628,0.151
			c0.244-0.024,0.485-0.017,0.75-0.08c0.254-0.089,0.573-0.135,0.778-0.243c0.218-0.088,0.441-0.225,0.656-0.398
			c0.435-0.335,0.847-0.788,1.228-1.285c1.503-2.061,2.553-4.646,3.521-7.194c1.896-5.162,3.38-10.538,5.02-15.877
			c0.817-2.673,1.658-5.347,2.607-7.999c0.955-2.65,1.993-5.29,3.356-7.837c0.693-1.269,1.468-2.517,2.453-3.672
			c0.992-1.125,2.23-2.255,3.935-2.717c0.836-0.228,1.743-0.249,2.578-0.083c0.858,0.174,1.574,0.453,2.319,0.926
			c0.753,0.471,1.322,1.083,1.792,1.71c0.483,0.628,0.859,1.288,1.196,1.953c1.313,2.673,2.039,5.44,2.659,8.203
			c0.612,2.767,1.058,5.544,1.446,8.323c1.5,11.123,2.126,22.27,2.994,33.374c0.431,5.55,0.881,11.097,1.575,16.588
			c0.352,2.743,0.767,5.476,1.361,8.136c0.304,1.326,0.656,2.636,1.114,3.864c0.441,1.201,1.081,2.431,1.804,2.948
			c0.356,0.24,0.612,0.281,1.018,0.172c0.366-0.077,0.656-0.354,1.007-0.826c0.663-0.941,1.146-2.219,1.553-3.481
			c0.805-2.564,1.332-5.279,1.797-7.994c0.903-5.448,1.487-10.979,2-16.513c1.978-22.163,2.665-44.459,4.513-66.725
			c0.493-5.568,1.021-11.136,1.99-16.701c0.249-1.393,0.53-2.783,0.898-4.178c0.186-0.698,0.389-1.391,0.646-2.098
			c0.074-0.191,0.126-0.348,0.221-0.567c0.104-0.227,0.194-0.464,0.31-0.683c0.228-0.439,0.47-0.875,0.777-1.229
			c0.572-0.716,1.412-1.28,2.364-1.138c0.911,0.144,1.641,0.771,2.268,1.519c0.307,0.394,0.58,0.803,0.832,1.221
			c0.189,0.332,0.369,0.654,0.532,0.983c0.337,0.659,0.62,1.31,0.906,1.952c2.266,5.173,4.08,10.486,5.754,15.826
			c1.667,5.344,3.174,10.725,4.62,16.118c2.896,10.782,5.496,21.631,8.426,32.357c1.494,5.339,2.994,10.727,5.108,15.74
			c0.539,1.234,1.141,2.451,1.851,3.463c0.28,0.37,0.517,0.645,0.87,0.832c0.349,0.208,0.794,0.07,1.066-0.196
			c0.298-0.29,0.442-0.518,0.762-1.118c0.289-0.569,0.57-1.189,0.815-1.805c0.497-1.24,0.906-2.526,1.251-3.836
			c1.351-5.264,1.782-10.801,2.044-16.327l0.305-8.35c0.057-1.4,0.124-2.806,0.254-4.23l0.113-1.073l0.074-0.554l0.116-0.704
			c0.18-0.986,0.476-1.932,0.961-2.656c0.251-0.355,0.55-0.668,0.949-0.87c0.398-0.216,0.881-0.222,1.293-0.126
			c0.832,0.199,1.589,0.748,2.28,1.459c0.35,0.365,0.667,0.728,0.949,1.089l0.679,0.885c0.405,0.528,0.809,1.056,1.253,1.532
			c0.873,0.965,1.842,1.816,2.897,2.329c1.05,0.534,2.163,0.62,3.304,0.337c1.146-0.285,2.293-0.922,3.434-1.64
			c1.145-0.718,2.3-1.532,3.555-2.269c1.254-0.732,2.646-1.398,4.202-1.715c1.559-0.303,3.245-0.164,4.722,0.387l0.304-0.823
			C410.919,184.489,409.037,184.331,407.332,184.667z"/>
	</g>
	<g>
		<g>
			<g>
				<path style="fill:#808588;" d="M62.354,8.802c-4.662,1.184-7.932,3.283-9.322,6.067c-3.595,7.202-6.855,26.511-6.994,27.328
					l4.246,0.712c0.035-0.195,3.295-19.487,6.601-26.117c2.786-5.578,21.432-7.751,44.321,1.542l1.617-3.989
					C86.426,7.688,71.634,6.438,62.354,8.802z"/>
			</g>
			<g>
				<path style="fill:#4B5157;" d="M101.205,18.334c-2.193-0.891-4.333-1.643-6.439-2.332c0.879-0.855,0.897-2.566-0.631-2.918
					c-9.855-2.277-25.789-7.326-35.068-0.69c-7.587,5.426-7.645,14.813-10.203,23.052c-0.497,1.6,1.226,2.534,2.418,2.037
					c-0.61,3.141-0.985,5.36-0.998,5.426l-4.246-0.712c0.139-0.817,3.399-20.126,6.994-27.328c1.39-2.784,4.661-4.883,9.322-6.067
					c9.28-2.364,24.072-1.114,40.468,5.543L101.205,18.334z"/>
			</g>
			<path style="fill:#4B5157;" d="M97.374,22.126c0,0-1.702-6.808,2.348-13.499c0,0,3.037-4.607,18.861,4.989
				c0,0,1.302,6.055-1.915,11.241C116.668,24.857,101.548,27.422,97.374,22.126z"/>
			<path style="fill:#899497;" d="M97.147,20.7c-0.144-1.275-0.233-3.298,0.188-5.677c7.033,1.654,14.068,3.533,21.118,5.317
				c-0.196,0.897-0.486,1.826-0.883,2.753C110.759,22.486,103.942,21.958,97.147,20.7z"/>
			<path style="fill:#899497;" d="M118.777,15.111c0.039,0.485,0.069,1.063,0.062,1.72c-6.864-1.742-13.719-3.573-20.572-5.183
				c0.277-0.736,0.635-1.487,1.035-2.237C105.804,11.282,112.378,12.942,118.777,15.111z"/>
			<path style="fill:#4B5157;" d="M118.584,13.615C102.759,4.02,99.723,8.627,99.723,8.627c-4.05,6.692-2.348,13.499-2.348,13.499
				c4.174,5.296,19.294,2.731,19.294,2.731C119.885,19.67,118.584,13.615,118.584,13.615z M117.338,18.065
				c1.397,1.237,0.021,3.71-0.22,4.701c-0.495,2.026-2.117,1.784-3.945,1.731c-11.387-0.323-14.336,0.031-12.951-6.943
				c0.463-2.333,0.483-4.3,3.28-4.583c2.583-0.263,5.47,0.75,7.853,1.582C113.269,15.222,115.707,16.621,117.338,18.065z"/>
			<path style="fill:#C6CCCE;" d="M86.982,12.558c-6.356-1.498-13.22-1.953-19.734-1.712c-11.362,0.42-11.853,8.247-14.773,15.885
				c-0.205,0.533-2.147,1.262-1.849,0.482c2.327-6.083,3.307-13.458,10.284-15.993c8.413-3.05,18.977-1.928,27.517,0.09
				C89.233,11.5,87.536,12.689,86.982,12.558z"/>
			<path style="fill:#C6CCCE;" d="M52.149,29.277c-0.683,1.778-1.085,3.639-1.432,5.507c-0.122,0.644-2.009,1.356-1.914,0.839
				c0.369-1.966,0.796-3.924,1.518-5.794C50.526,29.292,52.444,28.509,52.149,29.277z"/>
		</g>
		<g>
			<g>
				<path style="fill:#808588;" d="M58.887,9.976c4.81,0.028,8.489,1.273,10.511,3.639c5.224,6.123,13.049,24.074,13.381,24.833
					l-3.949,1.718c-0.079-0.182-7.896-18.119-12.707-23.753c-4.046-4.743-22.669-2.353-42.639,12.186l-2.532-3.479
					C35.261,14.701,49.31,9.92,58.887,9.976z"/>
			</g>
			<g>
				<path style="fill:#4B5157;" d="M23.484,28.598c1.912-1.393,3.807-2.641,5.689-3.819c-1.06-0.615-1.496-2.271-0.096-2.981
					c9.015-4.587,23.263-13.332,33.868-9.129c8.67,3.435,10.993,12.531,15.462,19.909c0.866,1.434-0.575,2.755-1.857,2.561
					c1.35,2.901,2.25,4.964,2.279,5.026l3.949-1.718c-0.332-0.759-8.158-18.709-13.381-24.833
					c-2.022-2.367-5.701-3.611-10.511-3.639C49.31,9.92,35.261,14.701,20.952,25.119L23.484,28.598z"/>
			</g>
			<path style="fill:#4B5157;" d="M28.114,31.355c0,0,0.011-7.017-5.536-12.533c0,0-4.057-3.74-17.099,9.388
				c0,0,0.2,6.192,4.568,10.447C10.048,38.657,25.341,37.501,28.114,31.355z"/>
			<path style="fill:#899497;" d="M27.992,29.915c-0.169-1.273-0.569-3.258-1.553-5.463c-6.426,3.3-12.799,6.822-19.209,10.254
				c0.402,0.822,0.91,1.656,1.52,2.46C15.211,34.932,21.699,32.778,27.992,29.915z"/>
			<path style="fill:#899497;" d="M5.655,29.71c0.077,0.48,0.188,1.048,0.353,1.684c6.241-3.349,12.45-6.776,18.712-9.992
				c-0.446-0.649-0.972-1.29-1.545-1.924C17.32,22.861,11.34,26.06,5.655,29.71z"/>
			<path style="fill:#4B5157;" d="M10.048,38.657c0,0,15.293-1.156,18.066-7.302c0,0,0.011-7.017-5.536-12.533
				c0,0-4.057-3.74-17.099,9.388C5.479,28.21,5.679,34.402,10.048,38.657z M12.72,27.378c2.114-1.381,4.668-3.061,7.239-3.429
				c2.786-0.4,3.274,1.503,4.288,3.655c3.033,6.434,0.079,6.802-10.891,9.862c-1.765,0.494-3.277,1.12-4.247-0.727
				c-0.474-0.905-2.405-2.974-1.349-4.511C8.994,30.436,11.028,28.488,12.72,27.378z"/>
			<path style="fill:#C6CCCE;" d="M35.893,19.563c5.807-2.99,12.356-5.085,18.738-6.423c11.129-2.332,13.491,5.142,18.17,11.854
				c0.325,0.466,2.388,0.705,1.909,0.019c-3.724-5.342-6.454-12.263-13.836-13.037c-8.904-0.934-18.885,2.705-26.682,6.72
				C33.453,19.079,35.387,19.823,35.893,19.563z"/>
			<path style="fill:#C6CCCE;" d="M73.728,27.384c1.097,1.561,1.932,3.271,2.721,4.999c0.274,0.596,2.278,0.832,2.058,0.353
				c-0.831-1.819-1.72-3.615-2.871-5.257C75.307,27.01,73.257,26.712,73.728,27.384z"/>
		</g>
		<path style="fill:#4B5157;" d="M37.478,136.64c4.397,20.469,13.637,34.539,24.723,37.639c0.419,0.115,0.86,0.217,1.313,0.309
			c-0.018,4.738,0.13,12.464,0.765,24.79c0.101,1.957,0.177,4.059,0.246,6.253c0.515,0.06,1.031,0.102,1.544,0.116
			c2.283-0.042,4.558-0.297,6.852-0.577c0.082-0.01,0.148-0.002,0.203,0.017c-0.07-2.191-0.146-4.293-0.245-6.252
			c-0.653-12.715-0.778-20.315-0.753-24.713c4.194-1.154,8.99-3.877,14.147-9.338c22.467-23.791,9.331-105.728-2.849-130.449
			l-7.724,3.807c12.421,25.203,22.996,99.931,5.317,118.651c-5.621,5.952-13.664,8.73-18.34,7.428
			c-7.707-2.156-13.178-12.721-16.781-29.489c-5.334-24.852,6.894-92.194,7.02-92.873l-8.471-1.552
			C43.929,43.242,31.783,110.121,37.478,136.64z"/>
		<path style="fill:#4B5157;" d="M37.478,136.64c4.397,20.469,13.637,34.539,24.723,37.639c0.419,0.115,0.86,0.217,1.313,0.309
			c-0.018,4.738,0.13,12.464,0.765,24.79l4.452,6.228c1.394-0.109,2.788-0.266,4.19-0.436c0.082-0.01,0.148-0.002,0.203,0.017
			c-0.07-2.191-0.146-4.293-0.245-6.252c-0.653-12.715-0.778-20.315-0.753-24.713c4.194-1.154,8.99-3.877,14.147-9.338
			c22.467-23.791,9.331-105.728-2.849-130.449l-3.559,1.754c5.547,11.402,8.999,23.604,11.235,36.15
			c2.745,15.393,5.285,31.176,4.896,46.864c-0.352,14.326,1.057,38.425-17.375,49.157c-1.958,1.136-3.178-2.922-1.338-4.208
			c9.832-6.867,11.697-15.318,13.173-23.466c1.893-10.425,2.476-21.116,1.831-31.692c-1.452-23.775-4.923-49.509-15.56-71.26
			l-1.029,0.507c12.421,25.203,22.996,99.931,5.317,118.651c-5.621,5.952-13.664,8.73-18.34,7.428
			c-7.707-2.156-13.178-12.721-16.781-29.489c-5.334-24.852,6.894-92.194,7.02-92.873l-3.116-0.57
			c0.647,0.117-6.529,35.641-8.449,52.835c-0.577,5.17-1.078,10.354-1.145,15.56c-0.256,19.521,1.945,41.659,16.526,56.137
			c1.605,1.592,0.344,5.333-1.257,3.741C41.5,155.782,36.974,136.5,36.941,117.534c-0.035-18.604,2.989-39.369,5.715-57.73
			c0.914-6.178,2.24-12.954,3.713-19.045l-1.924-0.353C43.929,43.242,31.783,110.121,37.478,136.64z"/>
		<path style="fill:#4B5157;" d="M74.066,203.807c0,0-0.805-23.684-0.792-25.837c0.013-2.152,0.422-3.091,3.122-4.69
			c0,0,1.348-0.395,0.415-2.015c-0.932-1.621-2.526-5.262-2.784-7.147c-0.258-1.885-0.12-2.69-1.467-2.296
			c-1.347,0.396-6.175,3.541-10.5,1.15c-1.475-0.815-1.746-0.548-2.296,1.602c-0.55,2.149-1.658,7.524-1.666,8.735
			c-0.007,1.211,1.878,1.087,2.952,1.497c1.074,0.41,2.016,0.415,2.127,4.317c0.112,3.902,0.672,23.413,0.795,25.433
			c0.123,2.019,2.275,2.031,4.695,2.314C71.087,207.152,74.19,205.69,74.066,203.807z"/>
		<path style="opacity:0.6;fill:#4B5157;" d="M61.05,174.806c1.074,0.41,2.016,0.415,2.127,4.317
			c0.112,3.902,0.672,23.413,0.795,25.433c0.1,1.638,1.545,1.953,3.376,2.166c-0.504-0.134-0.922-0.492-1.032-1.194
			c-0.811-5.205-0.888-11.446-1.042-16.705c-0.183-6.241-1.705-10.501-0.186-14.397c0.366-0.934,3.127-1.242,3.544-2.289
			c-0.934,0.197-2.051,0.635-2.996,0.543c-1.771,0.268-3.994-0.136-5.645-0.974c-1.794-0.91-0.633-6.058,1.242-5.509
			c2.947,0.135,5.689,0.636,5.916,0.707c2.17-0.08,6.885-3.996,7.916,3.813c0.181,1.369-2.288,2.995-3.52,3.746
			c-3.139,1.922-2.077,7.309-2.211,10.213c-0.303,6.587,0.915,15.449,0.687,20.723c-0.054,1.303-1.189,1.336-2.182,1.381
			c0.269,0.029,0.547,0.058,0.828,0.091c2.42,0.283,5.523-1.179,5.399-3.063c0,0-0.805-23.684-0.792-25.837
			c0.013-2.152,0.422-3.091,3.122-4.69c0,0,1.348-0.395,0.415-2.015c-0.932-1.621-2.526-5.262-2.784-7.147
			c-0.258-1.885-0.12-2.69-1.467-2.296c-1.347,0.396-6.175,3.541-10.5,1.15c-1.475-0.815-1.746-0.548-2.296,1.602
			c-0.55,2.149-1.658,7.524-1.666,8.735C58.091,174.52,59.976,174.395,61.05,174.806z"/>
		<path style="fill:#899497;" d="M55.577,167.239c0,0-11.791-8.409-15.416-32.916c-3.625-24.506-0.244-50.857,6.966-87.947
			c0,0-13.026,49.775-8.319,89.285C41.888,161.511,55.577,167.239,55.577,167.239z"/>
		<path style="fill:#899497;" d="M94.406,106.653c0,0,5.638,48.735-15.143,59.378C79.263,166.031,95.169,160.741,94.406,106.653z"/>
		<path style="fill:#899497;" d="M60.05,170.293c4.353,1.875,9.169,1.538,13.456-0.364c1.277-0.568-0.563-0.873-1.169-0.604
			c-3.432,1.523-7.011,1.806-10.496,0.305C61.316,169.405,59.354,169.994,60.05,170.293z"/>
		<path style="fill:#899497;" d="M67.483,204.416c0.013,0.675,2.135,0.868,2.125,0.331c-0.154-8.896-0.167-18.256-1.592-27.051
			c-0.113-0.702-2.198-0.787-2.125-0.332C67.312,186.157,67.329,195.517,67.483,204.416z"/>
		<path style="fill:#899497;" d="M65.957,175.927c0.076,0.087,0.1,0.186,0.079,0.299c0.013,0.551,2.138,0.317,2.125-0.35
			c-0.007-0.214-0.015-0.369-0.191-0.51C67.46,174.956,65.56,175.61,65.957,175.927z"/>
	</g>
	<path style="fill:#899497;" d="M423.77,184.648c-0.17,5.545-4.803,9.902-10.348,9.732c-5.546-0.17-9.902-4.802-9.733-10.347
		c0.17-5.544,4.802-9.901,10.349-9.731C419.582,174.472,423.939,179.103,423.77,184.648z"/>
</g>
</svg>
